<svg xmlns="http://www.w3.org/2000/svg" width="324" height="324" viewBox="0 0 324 324">
  <defs>
    <radialGradient id="bgGrad042" cx="50%" cy="42%" r="80%">
      <stop offset="0%" stop-color="#1d693c"/>
      <stop offset="100%" stop-color="#0d3f24"/>
    </radialGradient>
    <linearGradient id="handGrad042" x1="0%" y1="0%" x2="100%" y2="100%">
      <stop offset="0%" stop-color="#fff4c8"/>
      <stop offset="100%" stop-color="#fde047"/>
    </linearGradient>
  </defs>

  <rect x="0.000" y="0.000" width="324.000" height="324.000" fill="url(#bgGrad042)"/>
  <circle cx="162.000" cy="162.000" r="152.000" fill="none" stroke="#fde047" stroke-width="3.000"/>

  <!-- 握手 -->
  <path d="M90.000,186.000 C108.000,168.000 126.000,160.000 146.000,164.000 L166.000,184.000 C170.000,188.000 170.000,194.000 166.000,198.000 C162.000,202.000 156.000,202.000 152.000,198.000 L140.000,186.000" fill="url(#handGrad042)" stroke="#fde047" stroke-width="2.200"/>
  <path d="M234.000,186.000 C216.000,168.000 198.000,160.000 178.000,164.000 L158.000,184.000 C154.000,188.000 154.000,194.000 158.000,198.000 C162.000,202.000 168.000,202.000 172.000,198.000 L184.000,186.000" fill="url(#handGrad042)" stroke="#fde047" stroke-width="2.200"/>
  <path d="M120.000,194.000 L140.000,214.000" stroke="#fde047" stroke-width="3.000" stroke-linecap="round"/>
  <path d="M204.000,194.000 L184.000,214.000" stroke="#fde047" stroke-width="3.000" stroke-linecap="round"/>

  <!-- 僑生交流地球 -->
  <circle cx="162.000" cy="104.000" r="34.000" fill="none" stroke="#fde047" stroke-width="2.500"/>
  <ellipse cx="162.000" cy="104.000" rx="20.000" ry="34.000" fill="none" stroke="#fde047" stroke-width="1.700"/>
  <ellipse cx="162.000" cy="104.000" rx="34.000" ry="12.000" fill="none" stroke="#fde047" stroke-width="1.700"/>

  <!-- 連結軌道 -->
  <path d="M74.000,114.000 C102.000,86.000 132.000,74.000 162.000,74.000 C192.000,74.000 222.000,86.000 250.000,114.000" fill="none" stroke="#fde047" stroke-width="1.800" stroke-linecap="round"/>

  <!-- 點描 -->
  <g fill="#fde047">
    <circle cx="76.250" cy="92.500" r="1.700"/>
    <circle cx="93.500" cy="76.750" r="1.500"/>
    <circle cx="231.250" cy="82.750" r="1.850"/>
    <circle cx="248.500" cy="97.500" r="1.500"/>
    <circle cx="79.750" cy="242.250" r="1.650"/>
    <circle cx="95.250" cy="258.250" r="1.450"/>
    <circle cx="228.750" cy="246.000" r="1.750"/>
    <circle cx="244.750" cy="262.500" r="1.500"/>
  </g>
</svg>
