<svg xmlns="http://www.w3.org/2000/svg" width="324" height="324" viewBox="0 0 324 324">
  <defs>
    <radialGradient id="bgGrad049" cx="50%" cy="45%" r="70%">
      <stop offset="0%" stop-color="#13457a"/>
      <stop offset="100%" stop-color="#0b2f52"/>
    </radialGradient>
  </defs>

  <rect x="0.000" y="0.000" width="324.000" height="324.000" fill="url(#bgGrad049)"/>
  <circle cx="162.000" cy="162.000" r="152.000" fill="none" stroke="#f59e0b" stroke-width="3.000"/>

  <!-- 對話框外輪廓（點描） -->
  <path d="M66.000,90.000 H228.000 C238.000,90.000 246.000,98.000 246.000,108.000 V186.000 C246.000,196.000 238.000,204.000 228.000,204.000 H156.000 L132.000,226.000 L136.000,204.000 H66.000 C56.000,204.000 48.000,196.000 48.000,186.000 V108.000 C48.000,98.000 56.000,90.000 66.000,90.000 Z" fill="#16395f" stroke="#e8f4ff" stroke-width="2.500"/>

  <!-- 文字線（點描） -->
  <g fill="#e8f4ff">
    <circle cx="78.125" cy="123.250" r="2.350"/><circle cx="90.375" cy="123.250" r="2.350"/><circle cx="102.625" cy="123.250" r="2.350"/><circle cx="114.875" cy="123.250" r="2.350"/><circle cx="127.125" cy="123.250" r="2.350"/><circle cx="139.375" cy="123.250" r="2.350"/><circle cx="151.625" cy="123.250" r="2.350"/><circle cx="163.875" cy="123.250" r="2.350"/><circle cx="176.125" cy="123.250" r="2.350"/><circle cx="188.375" cy="123.250" r="2.350"/><circle cx="200.625" cy="123.250" r="2.350"/>
    <circle cx="78.125" cy="147.500" r="2.350"/><circle cx="90.375" cy="147.500" r="2.350"/><circle cx="102.625" cy="147.500" r="2.350"/><circle cx="114.875" cy="147.500" r="2.350"/><circle cx="127.125" cy="147.500" r="2.350"/><circle cx="139.375" cy="147.500" r="2.350"/><circle cx="151.625" cy="147.500" r="2.350"/><circle cx="163.875" cy="147.500" r="2.350"/><circle cx="176.125" cy="147.500" r="2.350"/>
    <circle cx="78.125" cy="171.750" r="2.350"/><circle cx="90.375" cy="171.750" r="2.350"/><circle cx="102.625" cy="171.750" r="2.350"/><circle cx="114.875" cy="171.750" r="2.350"/><circle cx="127.125" cy="171.750" r="2.350"/><circle cx="139.375" cy="171.750" r="2.350"/><circle cx="151.625" cy="171.750" r="2.350"/>
  </g>

  <!-- 麥克風（圓點和曲線） -->
  <ellipse cx="273.500" cy="148.000" rx="16.500" ry="22.500" fill="#f59e0b"/>
  <rect x="269.750" y="170.500" width="7.500" height="25.000" rx="3.750" fill="#f59e0b"/>
  <path d="M259.000,198.000 Q273.500,211.000 288.000,198.000" fill="none" stroke="#f59e0b" stroke-width="4.000"/>

  <!-- 聲波（點描） -->
  <g fill="#f59e0b">
    <circle cx="301.125" cy="132.000" r="2.250"/><circle cx="301.125" cy="141.000" r="2.250"/><circle cx="301.125" cy="150.000" r="2.250"/><circle cx="301.125" cy="159.000" r="2.250"/><circle cx="301.125" cy="168.000" r="2.250"/>
    <circle cx="312.375" cy="123.000" r="2.250"/><circle cx="312.375" cy="132.000" r="2.250"/><circle cx="312.375" cy="141.000" r="2.250"/><circle cx="312.375" cy="150.000" r="2.250"/><circle cx="312.375" cy="159.000" r="2.250"/><circle cx="312.375" cy="168.000" r="2.250"/><circle cx="312.375" cy="177.000" r="2.250"/>
  </g>
</svg>
