<svg xmlns="http://www.w3.org/2000/svg" width="324" height="324" viewBox="0 0 324 324">
  <defs>
    <radialGradient id="bgGrad056" cx="50%" cy="40%" r="76%">
      <stop offset="0%" stop-color="#164a82"/>
      <stop offset="100%" stop-color="#07233e"/>
    </radialGradient>
    <linearGradient id="cardGrad056" x1="0%" y1="0%" x2="100%" y2="100%">
      <stop offset="0%" stop-color="#f0f7ff"/>
      <stop offset="100%" stop-color="#d7e8fb"/>
    </linearGradient>
  </defs>

  <rect x="0.000" y="0.000" width="324.000" height="324.000" fill="url(#bgGrad056)"/>
  <circle cx="162.000" cy="162.000" r="152.000" fill="none" stroke="#f59e0b" stroke-width="3.000"/>

  <!-- 塔羅牌 -->
  <rect x="102.000" y="60.000" width="120.000" height="204.000" rx="12.000" fill="url(#cardGrad056)" stroke="#f59e0b" stroke-width="2.800"/>
  <rect x="114.000" y="72.000" width="96.000" height="180.000" rx="9.000" fill="#11365d"/>

  <!-- 中央星紋 -->
  <path d="M162.000,108.000 L169.500,129.500 L192.000,129.500 L173.500,143.500 L181.000,165.000 L162.000,151.500 L143.000,165.000 L150.500,143.500 L132.000,129.500 L154.500,129.500 Z" fill="#f59e0b"/>
  <circle cx="162.000" cy="139.500" r="3.250" fill="#ffffff"/>

  <!-- 月相 -->
  <circle cx="135.000" cy="201.000" r="8.500" fill="#f59e0b"/>
  <circle cx="189.000" cy="201.000" r="8.500" fill="#f59e0b"/>
  <ellipse cx="162.000" cy="210.000" rx="10.000" ry="4.200" fill="#f59e0b"/>

  <!-- 外圍點描星點 -->
  <g fill="#f59e0b">
    <circle cx="74.250" cy="74.500" r="1.900"/>
    <circle cx="88.125" cy="58.750" r="1.600"/>
    <circle cx="247.500" cy="65.125" r="1.900"/>
    <circle cx="261.625" cy="83.500" r="1.550"/>
    <circle cx="82.500" cy="246.250" r="1.700"/>
    <circle cx="242.125" cy="252.375" r="1.850"/>
  </g>
</svg>
