<svg xmlns="http://www.w3.org/2000/svg" width="324" height="324" viewBox="0 0 324 324">
  <defs>
    <radialGradient id="bgGrad060" cx="50%" cy="42%" r="80%">
      <stop offset="0%" stop-color="#1d693c"/>
      <stop offset="100%" stop-color="#0d3f24"/>
    </radialGradient>
    <linearGradient id="cardGrad060" x1="0%" y1="0%" x2="100%" y2="100%">
      <stop offset="0%" stop-color="#f7ffea"/>
      <stop offset="100%" stop-color="#d7f5c0"/>
    </linearGradient>
  </defs>

  <rect x="0.000" y="0.000" width="324.000" height="324.000" fill="url(#bgGrad060)"/>
  <circle cx="162.000" cy="162.000" r="152.000" fill="none" stroke="#fde047" stroke-width="3.000"/>

  <rect x="86.000" y="96.000" width="88.000" height="112.000" rx="10.000" fill="url(#cardGrad060)" stroke="#fde047" stroke-width="2.100"/>
  <rect x="150.000" y="120.000" width="88.000" height="112.000" rx="10.000" fill="url(#cardGrad060)" stroke="#fde047" stroke-width="2.100"/>
  <g stroke="#9fd48c" stroke-width="1.300" stroke-linecap="round">
    <path d="M100.000,128.000 H156.000"/>
    <path d="M100.000,140.000 H156.000"/>
    <path d="M164.000,152.000 H220.000"/>
    <path d="M164.000,164.000 H220.000"/>
  </g>

  <path d="M126.000,230.000 C148.000,244.000 174.000,244.000 198.000,230.000" fill="none" stroke="#fde047" stroke-width="3.600" stroke-linecap="round"/>
  <path d="M198.000,230.000 L189.000,232.000 L193.000,223.000 Z" fill="#fde047"/>
  <path d="M198.000,248.000 C176.000,262.000 150.000,262.000 126.000,248.000" fill="none" stroke="#fde047" stroke-width="3.000" stroke-linecap="round"/>
  <path d="M126.000,248.000 L135.000,246.000 L131.000,255.000 Z" fill="#fde047"/>

  <g fill="#fde047">
    <circle cx="98.000" cy="256.000" r="5.500"/>
    <circle cx="162.000" cy="272.000" r="5.800"/>
    <circle cx="226.000" cy="256.000" r="5.500"/>
  </g>

  <g fill="#fde047">
    <circle cx="76.250" cy="92.500" r="1.700"/>
    <circle cx="93.500" cy="76.750" r="1.500"/>
    <circle cx="231.250" cy="82.750" r="1.850"/>
    <circle cx="248.500" cy="97.500" r="1.500"/>
    <circle cx="79.750" cy="242.250" r="1.650"/>
    <circle cx="95.250" cy="258.250" r="1.450"/>
    <circle cx="228.750" cy="246.000" r="1.750"/>
    <circle cx="244.750" cy="262.500" r="1.500"/>
  </g>
</svg>
