<svg xmlns="http://www.w3.org/2000/svg" width="324" height="324" viewBox="0 0 324 324">
  <defs>
    <radialGradient id="bgGrad061" cx="50%" cy="42%" r="82%">
      <stop offset="0%" stop-color="#312e81"/>
      <stop offset="100%" stop-color="#1e1b4b"/>
    </radialGradient>
    <radialGradient id="glow061" cx="50%" cy="44%" r="62%">
      <stop offset="0%" stop-color="#fecdd3" stop-opacity="0.34"/>
      <stop offset="100%" stop-color="#fecdd3" stop-opacity="0"/>
    </radialGradient>
  </defs>

  <rect x="0.000" y="0.000" width="324.000" height="324.000" fill="url(#bgGrad061)"/>
  <circle cx="162.000" cy="162.000" r="152.000" fill="none" stroke="#fca5a5" stroke-width="3.000"/>
  <circle cx="162.000" cy="144.000" r="112.000" fill="url(#glow061)"/>

  <rect x="98.000" y="126.000" width="128.000" height="72.000" rx="14.000" fill="none" stroke="#fca5a5" stroke-width="4.000"/>
  <path d="M110.000,136.000 L110.000,188.000" stroke="#fca5a5" stroke-width="2.000"/>
  <path d="M122.000,136.000 L122.000,188.000" stroke="#fca5a5" stroke-width="2.000"/>
  <path d="M134.000,136.000 L134.000,188.000" stroke="#fca5a5" stroke-width="2.000"/>
  <path d="M146.000,136.000 L146.000,188.000" stroke="#fca5a5" stroke-width="2.000"/>
  <path d="M158.000,136.000 L158.000,188.000" stroke="#fca5a5" stroke-width="2.000"/>
  <path d="M170.000,136.000 L170.000,188.000" stroke="#fca5a5" stroke-width="2.000"/>
  <path d="M182.000,136.000 L182.000,188.000" stroke="#fca5a5" stroke-width="2.000"/>
  <path d="M194.000,136.000 L194.000,188.000" stroke="#fca5a5" stroke-width="2.000"/>
  <path d="M206.000,136.000 L206.000,188.000" stroke="#fca5a5" stroke-width="2.000"/>
  <path d="M218.000,136.000 L218.000,188.000" stroke="#fca5a5" stroke-width="2.000"/>

  <path d="M110.000,220.000 C128.000,212.000 146.000,208.000 162.000,208.000 C178.000,208.000 196.000,212.000 214.000,220.000" fill="none" stroke="#fca5a5" stroke-width="2.500" stroke-linecap="round"/>

  <g fill="#fca5a5">
    <circle cx="76.250" cy="92.500" r="1.700"/>
    <circle cx="93.500" cy="76.750" r="1.500"/>
    <circle cx="231.250" cy="82.750" r="1.850"/>
    <circle cx="248.500" cy="97.500" r="1.500"/>
    <circle cx="79.750" cy="242.250" r="1.650"/>
    <circle cx="95.250" cy="258.250" r="1.450"/>
    <circle cx="228.750" cy="246.000" r="1.750"/>
    <circle cx="244.750" cy="262.500" r="1.500"/>
  </g>
</svg>
