<svg xmlns="http://www.w3.org/2000/svg" width="324" height="324" viewBox="0 0 324 324">
  <defs>
    <radialGradient id="bgGrad064" cx="50%" cy="42%" r="82%">
      <stop offset="0%" stop-color="#7c2d12"/>
      <stop offset="100%" stop-color="#431407"/>
    </radialGradient>
    <radialGradient id="glow064" cx="50%" cy="44%" r="62%">
      <stop offset="0%" stop-color="#fef3c7" stop-opacity="0.34"/>
      <stop offset="100%" stop-color="#fef3c7" stop-opacity="0"/>
    </radialGradient>
  </defs>

  <rect x="0.000" y="0.000" width="324.000" height="324.000" fill="url(#bgGrad064)"/>
  <circle cx="162.000" cy="162.000" r="152.000" fill="none" stroke="#fef08a" stroke-width="3.000"/>
  <circle cx="162.000" cy="144.000" r="112.000" fill="url(#glow064)"/>

  <path d="M112.000,228.000 L202.000,118.000" stroke="#fef08a" stroke-width="16.000" stroke-linecap="round"/>
  <path d="M112.000,228.000 L202.000,118.000" stroke="#ffffff" stroke-width="5.000" stroke-linecap="round" opacity="0.82"/>
  <path d="M198.000,112.000 L220.000,92.000" stroke="#fef08a" stroke-width="10.000" stroke-linecap="round"/>
  <path d="M216.000,88.000 L232.000,74.000" stroke="#fef08a" stroke-width="6.000" stroke-linecap="round"/>
  <path d="M100.000,238.000 L112.000,228.000 L122.000,242.000 L108.000,254.000 Z" fill="#fef08a"/>
  <path d="M96.000,248.000 C110.000,238.000 124.000,236.000 136.000,244.000" fill="none" stroke="#fef08a" stroke-width="2.300" stroke-linecap="round"/>
  <path d="M124.000,246.000 C138.000,252.000 150.000,256.000 164.000,258.000" fill="none" stroke="#fef08a" stroke-width="2.000" stroke-linecap="round"/>

  <g fill="#fef08a">
    <circle cx="76.250" cy="92.500" r="1.700"/>
    <circle cx="93.500" cy="76.750" r="1.500"/>
    <circle cx="231.250" cy="82.750" r="1.850"/>
    <circle cx="248.500" cy="97.500" r="1.500"/>
    <circle cx="79.750" cy="242.250" r="1.650"/>
    <circle cx="95.250" cy="258.250" r="1.450"/>
    <circle cx="228.750" cy="246.000" r="1.750"/>
    <circle cx="244.750" cy="262.500" r="1.500"/>
  </g>
</svg>
