<svg xmlns="http://www.w3.org/2000/svg" width="324" height="324" viewBox="0 0 324 324">
  <defs>
    <radialGradient id="bgGrad066" cx="50%" cy="42%" r="82%">
      <stop offset="0%" stop-color="#7c2d12"/>
      <stop offset="100%" stop-color="#431407"/>
    </radialGradient>
    <radialGradient id="glow066" cx="50%" cy="44%" r="62%">
      <stop offset="0%" stop-color="#fef3c7" stop-opacity="0.34"/>
      <stop offset="100%" stop-color="#fef3c7" stop-opacity="0"/>
    </radialGradient>
  </defs>

  <rect x="0.000" y="0.000" width="324.000" height="324.000" fill="url(#bgGrad066)"/>
  <circle cx="162.000" cy="162.000" r="152.000" fill="none" stroke="#fef08a" stroke-width="3.000"/>
  <circle cx="162.000" cy="144.000" r="112.000" fill="url(#glow066)"/>

  <rect x="88.000" y="126.000" width="148.000" height="88.000" rx="14.000" fill="none" stroke="#fef08a" stroke-width="5.000"/>
  <circle cx="162.000" cy="170.000" r="28.000" fill="none" stroke="#fef08a" stroke-width="4.000"/>
  <circle cx="162.000" cy="170.000" r="12.000" fill="#fef08a"/>
  <rect x="116.000" y="114.000" width="34.000" height="14.000" rx="6.000" fill="#fef08a"/>
  <circle cx="206.000" cy="144.000" r="6.000" fill="#fef08a"/>
  <path d="M106.000,234.000 C126.000,222.000 144.000,216.000 162.000,216.000 C180.000,216.000 198.000,222.000 218.000,234.000" fill="none" stroke="#fef08a" stroke-width="2.000" stroke-linecap="round"/>

  <g fill="#fef08a">
    <circle cx="76.250" cy="92.500" r="1.700"/>
    <circle cx="93.500" cy="76.750" r="1.500"/>
    <circle cx="231.250" cy="82.750" r="1.850"/>
    <circle cx="248.500" cy="97.500" r="1.500"/>
    <circle cx="79.750" cy="242.250" r="1.650"/>
    <circle cx="95.250" cy="258.250" r="1.450"/>
    <circle cx="228.750" cy="246.000" r="1.750"/>
    <circle cx="244.750" cy="262.500" r="1.500"/>
  </g>
</svg>
