<svg xmlns="http://www.w3.org/2000/svg" width="324" height="324" viewBox="0 0 324 324">
  <defs>
    <radialGradient id="bgGrad067" cx="50%" cy="42%" r="82%">
      <stop offset="0%" stop-color="#7c2d12"/>
      <stop offset="100%" stop-color="#431407"/>
    </radialGradient>
    <radialGradient id="glow067" cx="50%" cy="44%" r="62%">
      <stop offset="0%" stop-color="#fef3c7" stop-opacity="0.34"/>
      <stop offset="100%" stop-color="#fef3c7" stop-opacity="0"/>
    </radialGradient>
  </defs>

  <rect x="0.000" y="0.000" width="324.000" height="324.000" fill="url(#bgGrad067)"/>
  <circle cx="162.000" cy="162.000" r="152.000" fill="none" stroke="#fef08a" stroke-width="3.000"/>
  <circle cx="162.000" cy="144.000" r="112.000" fill="url(#glow067)"/>

  <circle cx="162.000" cy="118.000" r="10.000" fill="#fef08a"/>
  <path d="M162.000,130.000 L162.000,176.000" stroke="#fef08a" stroke-width="3.200" stroke-linecap="round"/>
  <path d="M162.000,144.000 L138.000,160.000" stroke="#fef08a" stroke-width="2.600" stroke-linecap="round"/>
  <path d="M162.000,144.000 L186.000,154.000" stroke="#fef08a" stroke-width="2.600" stroke-linecap="round"/>
  <path d="M162.000,176.000 L144.000,206.000" stroke="#fef08a" stroke-width="2.700" stroke-linecap="round"/>
  <path d="M162.000,176.000 L182.000,204.000" stroke="#fef08a" stroke-width="2.700" stroke-linecap="round"/>
  <path d="M126.000,214.000 C138.000,204.000 150.000,198.000 162.000,198.000 C174.000,198.000 186.000,204.000 198.000,214.000" fill="none" stroke="#ffffff" stroke-width="2.000" stroke-linecap="round" opacity="0.88"/>
  <path d="M106.000,236.000 C124.000,222.000 142.000,214.000 162.000,214.000 C182.000,214.000 200.000,222.000 218.000,236.000" fill="none" stroke="#fef08a" stroke-width="2.000" stroke-linecap="round"/>

  <g fill="#fef08a">
    <circle cx="76.250" cy="92.500" r="1.700"/>
    <circle cx="93.500" cy="76.750" r="1.500"/>
    <circle cx="231.250" cy="82.750" r="1.850"/>
    <circle cx="248.500" cy="97.500" r="1.500"/>
    <circle cx="79.750" cy="242.250" r="1.650"/>
    <circle cx="95.250" cy="258.250" r="1.450"/>
    <circle cx="228.750" cy="246.000" r="1.750"/>
    <circle cx="244.750" cy="262.500" r="1.500"/>
  </g>
</svg>
