<svg xmlns="http://www.w3.org/2000/svg" width="324" height="324" viewBox="0 0 324 324">
  <defs>
    <radialGradient id="bgGrad068" cx="50%" cy="42%" r="82%">
      <stop offset="0%" stop-color="#312e81"/>
      <stop offset="100%" stop-color="#1e1b4b"/>
    </radialGradient>
    <radialGradient id="glow068" cx="50%" cy="44%" r="62%">
      <stop offset="0%" stop-color="#fecdd3" stop-opacity="0.34"/>
      <stop offset="100%" stop-color="#fecdd3" stop-opacity="0"/>
    </radialGradient>
  </defs>

  <rect x="0.000" y="0.000" width="324.000" height="324.000" fill="url(#bgGrad068)"/>
  <circle cx="162.000" cy="162.000" r="152.000" fill="none" stroke="#fca5a5" stroke-width="3.000"/>
  <circle cx="162.000" cy="144.000" r="112.000" fill="url(#glow068)"/>

  <path d="M104.000,124.000 L142.000,124.000 L136.000,174.000 L98.000,174.000 Z" fill="none" stroke="#fca5a5" stroke-width="4.000" stroke-linejoin="round"/>
  <path d="M104.000,136.000 L136.000,136.000" stroke="#fca5a5" stroke-width="2.500"/>
  <path d="M104.000,148.000 L136.000,148.000" stroke="#fca5a5" stroke-width="2.500"/>
  <path d="M104.000,160.000 L136.000,160.000" stroke="#fca5a5" stroke-width="2.500"/>

  <path d="M220.000,124.000 L182.000,124.000 L188.000,174.000 L226.000,174.000 Z" fill="none" stroke="#fca5a5" stroke-width="4.000" stroke-linejoin="round"/>
  <path d="M188.000,136.000 L220.000,136.000" stroke="#fca5a5" stroke-width="2.500"/>
  <path d="M188.000,148.000 L220.000,148.000" stroke="#fca5a5" stroke-width="2.500"/>
  <path d="M188.000,160.000 L220.000,160.000" stroke="#fca5a5" stroke-width="2.500"/>

  <path d="M162.000,116.000 V224.000" stroke="#fca5a5" stroke-width="4.000" stroke-linecap="round"/>
  <path d="M150.000,224.000 H174.000" stroke="#fca5a5" stroke-width="4.000" stroke-linecap="round"/>

  <g fill="#fca5a5">
    <circle cx="76.250" cy="92.500" r="1.700"/>
    <circle cx="93.500" cy="76.750" r="1.500"/>
    <circle cx="231.250" cy="82.750" r="1.850"/>
    <circle cx="248.500" cy="97.500" r="1.500"/>
    <circle cx="79.750" cy="242.250" r="1.650"/>
    <circle cx="95.250" cy="258.250" r="1.450"/>
    <circle cx="228.750" cy="246.000" r="1.750"/>
    <circle cx="244.750" cy="262.500" r="1.500"/>
  </g>
</svg>
