<svg xmlns="http://www.w3.org/2000/svg" width="324" height="324" viewBox="0 0 324 324">
  <defs>
    <radialGradient id="bgGrad071" cx="50%" cy="42%" r="82%">
      <stop offset="0%" stop-color="#312e81"/>
      <stop offset="100%" stop-color="#1e1b4b"/>
    </radialGradient>
    <radialGradient id="glow071" cx="50%" cy="44%" r="62%">
      <stop offset="0%" stop-color="#fecdd3" stop-opacity="0.34"/>
      <stop offset="100%" stop-color="#fecdd3" stop-opacity="0"/>
    </radialGradient>
  </defs>

  <rect x="0.000" y="0.000" width="324.000" height="324.000" fill="url(#bgGrad071)"/>
  <circle cx="162.000" cy="162.000" r="152.000" fill="none" stroke="#fca5a5" stroke-width="3.000"/>
  <circle cx="162.000" cy="144.000" r="112.000" fill="url(#glow071)"/>

  <path d="M126.000,126.000 L192.000,116.000 C210.000,114.000 224.000,128.000 222.000,146.000 C220.000,164.000 206.000,178.000 188.000,180.000 L122.000,190.000 Z" fill="none" stroke="#fca5a5" stroke-width="4.000" stroke-linejoin="round"/>
  <path d="M126.000,126.000 L122.000,190.000" stroke="#fca5a5" stroke-width="4.000"/>
  <path d="M142.000,142.000 L202.000,134.000" stroke="#fca5a5" stroke-width="2.500"/>
  <path d="M141.000,154.000 L199.000,146.000" stroke="#fca5a5" stroke-width="2.500"/>
  <path d="M140.000,166.000 L196.000,158.000" stroke="#fca5a5" stroke-width="2.500"/>
  <path d="M139.000,178.000 L193.000,170.000" stroke="#fca5a5" stroke-width="2.500"/>
  <circle cx="112.000" cy="200.000" r="10.000" fill="none" stroke="#fca5a5" stroke-width="3.000"/>
  <circle cx="132.000" cy="205.000" r="8.000" fill="none" stroke="#fca5a5" stroke-width="3.000"/>

  <g fill="#fca5a5">
    <circle cx="76.250" cy="92.500" r="1.700"/>
    <circle cx="93.500" cy="76.750" r="1.500"/>
    <circle cx="231.250" cy="82.750" r="1.850"/>
    <circle cx="248.500" cy="97.500" r="1.500"/>
    <circle cx="79.750" cy="242.250" r="1.650"/>
    <circle cx="95.250" cy="258.250" r="1.450"/>
    <circle cx="228.750" cy="246.000" r="1.750"/>
    <circle cx="244.750" cy="262.500" r="1.500"/>
  </g>
</svg>
