<svg xmlns="http://www.w3.org/2000/svg" width="324" height="324" viewBox="0 0 324 324">
  <defs>
    <radialGradient id="bgGrad072" cx="50%" cy="42%" r="82%">
      <stop offset="0%" stop-color="#7c2d12"/>
      <stop offset="100%" stop-color="#431407"/>
    </radialGradient>
    <radialGradient id="glow072" cx="50%" cy="44%" r="62%">
      <stop offset="0%" stop-color="#fef3c7" stop-opacity="0.34"/>
      <stop offset="100%" stop-color="#fef3c7" stop-opacity="0"/>
    </radialGradient>
  </defs>

  <rect x="0.000" y="0.000" width="324.000" height="324.000" fill="url(#bgGrad072)"/>
  <circle cx="162.000" cy="162.000" r="152.000" fill="none" stroke="#fef08a" stroke-width="3.000"/>
  <circle cx="162.000" cy="144.000" r="112.000" fill="url(#glow072)"/>

  <circle cx="142.000" cy="116.000" r="8.000" fill="#fef08a"/>
  <path d="M142.000,126.000 L142.000,172.000" stroke="#fef08a" stroke-width="3.000" stroke-linecap="round"/>
  <path d="M142.000,140.000 L124.000,154.000" stroke="#fef08a" stroke-width="2.400" stroke-linecap="round"/>
  <path d="M142.000,140.000 L158.000,150.000" stroke="#fef08a" stroke-width="2.400" stroke-linecap="round"/>
  <path d="M142.000,172.000 L126.000,202.000" stroke="#fef08a" stroke-width="2.600" stroke-linecap="round"/>
  <path d="M142.000,172.000 L162.000,200.000" stroke="#fef08a" stroke-width="2.600" stroke-linecap="round"/>

  <circle cx="186.000" cy="112.000" r="8.000" fill="#ffffff" opacity="0.9"/>
  <path d="M186.000,122.000 L186.000,170.000" stroke="#ffffff" stroke-width="2.600" stroke-linecap="round" opacity="0.9"/>
  <path d="M186.000,136.000 L170.000,150.000" stroke="#ffffff" stroke-width="2.200" stroke-linecap="round" opacity="0.9"/>
  <path d="M186.000,136.000 L202.000,150.000" stroke="#ffffff" stroke-width="2.200" stroke-linecap="round" opacity="0.9"/>
  <path d="M186.000,170.000 L172.000,200.000" stroke="#ffffff" stroke-width="2.300" stroke-linecap="round" opacity="0.9"/>
  <path d="M186.000,170.000 L200.000,198.000" stroke="#ffffff" stroke-width="2.300" stroke-linecap="round" opacity="0.9"/>

  <path d="M126.000,202.000 C142.000,192.000 156.000,186.000 172.000,186.000 C188.000,186.000 202.000,192.000 216.000,202.000" fill="none" stroke="#fef08a" stroke-width="2.000" stroke-linecap="round"/>
  <path d="M102.000,236.000 C122.000,222.000 142.000,214.000 162.000,214.000 C182.000,214.000 202.000,222.000 222.000,236.000" fill="none" stroke="#fef08a" stroke-width="2.000" stroke-linecap="round"/>

  <g fill="#fef08a">
    <circle cx="76.250" cy="92.500" r="1.700"/>
    <circle cx="93.500" cy="76.750" r="1.500"/>
    <circle cx="231.250" cy="82.750" r="1.850"/>
    <circle cx="248.500" cy="97.500" r="1.500"/>
    <circle cx="79.750" cy="242.250" r="1.650"/>
    <circle cx="95.250" cy="258.250" r="1.450"/>
    <circle cx="228.750" cy="246.000" r="1.750"/>
    <circle cx="244.750" cy="262.500" r="1.500"/>
  </g>
</svg>
