<svg xmlns="http://www.w3.org/2000/svg" width="324" height="324" viewBox="0 0 324 324">
  <defs>
    <radialGradient id="bgGrad081" cx="50%" cy="42%" r="82%">
      <stop offset="0%" stop-color="#7c2d12"/>
      <stop offset="100%" stop-color="#431407"/>
    </radialGradient>
    <radialGradient id="glow081" cx="50%" cy="44%" r="62%">
      <stop offset="0%" stop-color="#fef3c7" stop-opacity="0.34"/>
      <stop offset="100%" stop-color="#fef3c7" stop-opacity="0"/>
    </radialGradient>
  </defs>

  <rect x="0.000" y="0.000" width="324.000" height="324.000" fill="url(#bgGrad081)"/>
  <circle cx="162.000" cy="162.000" r="152.000" fill="none" stroke="#fef08a" stroke-width="3.000"/>
  <circle cx="162.000" cy="144.000" r="112.000" fill="url(#glow081)"/>

  <rect x="146.000" y="86.000" width="32.000" height="64.000" rx="16.000" fill="none" stroke="#fef08a" stroke-width="4.000"/>
  <path d="M162.000,150.000 L162.000,208.000" stroke="#fef08a" stroke-width="4.200" stroke-linecap="round"/>
  <path d="M138.000,208.000 H186.000" stroke="#fef08a" stroke-width="4.000" stroke-linecap="round"/>
  <path d="M146.000,220.000 H178.000" stroke="#fef08a" stroke-width="3.000" stroke-linecap="round"/>

  <path d="M184.000,108.000 C196.000,116.000 202.000,128.000 202.000,142.000" fill="none" stroke="#fef08a" stroke-width="2.300" stroke-linecap="round"/>
  <path d="M196.000,98.000 C212.000,110.000 220.000,126.000 220.000,146.000" fill="none" stroke="#fef08a" stroke-width="2.300" stroke-linecap="round"/>
  <path d="M140.000,108.000 C128.000,116.000 122.000,128.000 122.000,142.000" fill="none" stroke="#ffffff" stroke-width="2.000" stroke-linecap="round" opacity="0.88"/>

  <g fill="#fef08a">
    <circle cx="76.250" cy="92.500" r="1.700"/>
    <circle cx="93.500" cy="76.750" r="1.500"/>
    <circle cx="231.250" cy="82.750" r="1.850"/>
    <circle cx="248.500" cy="97.500" r="1.500"/>
    <circle cx="79.750" cy="242.250" r="1.650"/>
    <circle cx="95.250" cy="258.250" r="1.450"/>
    <circle cx="228.750" cy="246.000" r="1.750"/>
    <circle cx="244.750" cy="262.500" r="1.500"/>
  </g>
</svg>
