<svg xmlns="http://www.w3.org/2000/svg" width="324" height="324" viewBox="0 0 324 324">
  <defs>
    <radialGradient id="bgGrad082" cx="50%" cy="42%" r="80%">
      <stop offset="0%" stop-color="#1d693c"/>
      <stop offset="100%" stop-color="#0d3f24"/>
    </radialGradient>
    <linearGradient id="pieceGrad082" x1="0%" y1="0%" x2="100%" y2="100%">
      <stop offset="0%" stop-color="#fff4cb"/>
      <stop offset="100%" stop-color="#fde047"/>
    </linearGradient>
    <radialGradient id="boardGlow082" cx="50%" cy="45%" r="72%">
      <stop offset="0%" stop-color="#fff6d8" stop-opacity="0.240"/>
      <stop offset="100%" stop-color="#fde047" stop-opacity="0.000"/>
    </radialGradient>
  </defs>

  <rect x="0.000" y="0.000" width="324.000" height="324.000" fill="url(#bgGrad082)"/>
  <circle cx="162.000" cy="162.000" r="152.000" fill="none" stroke="#fde047" stroke-width="3.000"/>

  <rect x="86.000" y="92.000" width="152.000" height="140.000" rx="10.000" fill="none" stroke="#fde047" stroke-width="2.200"/>
  <rect x="96.000" y="102.000" width="132.000" height="120.000" rx="6.000" fill="url(#boardGlow082)"/>
  <g stroke="#fde047" stroke-width="0.950">
    <path d="M112.500,102.000 V222.000"/>
    <path d="M129.000,102.000 V222.000"/>
    <path d="M145.500,102.000 V222.000"/>
    <path d="M162.000,102.000 V222.000"/>
    <path d="M178.500,102.000 V222.000"/>
    <path d="M195.000,102.000 V222.000"/>
    <path d="M211.500,102.000 V222.000"/>
    <path d="M96.000,117.000 H228.000"/>
    <path d="M96.000,132.000 H228.000"/>
    <path d="M96.000,147.000 H228.000"/>
    <path d="M96.000,162.000 H228.000"/>
    <path d="M96.000,177.000 H228.000"/>
    <path d="M96.000,192.000 H228.000"/>
    <path d="M96.000,207.000 H228.000"/>
  </g>

  <path d="M132.000,214.000 L132.000,176.000 C132.000,154.000 147.000,138.000 167.000,138.000 C178.500,138.000 188.000,143.500 193.000,152.500 C185.000,151.500 178.000,153.000 172.000,159.000 C163.500,167.500 166.000,181.000 176.000,188.000 C170.500,196.000 159.500,201.500 147.000,201.500 L147.000,214.000 Z" fill="url(#pieceGrad082)" stroke="#fde047" stroke-width="2.100"/>
  <circle cx="171.500" cy="159.500" r="2.000" fill="#fde047"/>
  <path d="M190.000,214.000 C186.500,209.500 185.000,205.000 185.000,199.000 C185.000,190.500 190.500,183.500 198.500,181.000 C200.500,177.500 202.500,173.000 202.500,168.000 C202.500,164.500 201.000,161.000 198.000,158.000 C205.000,158.500 210.500,162.000 214.000,167.500 C215.500,170.000 216.250,173.000 216.250,176.000 C216.250,182.000 212.750,187.000 207.000,190.000 C211.500,192.000 214.500,196.500 214.500,201.500 C214.500,206.000 212.000,210.000 208.000,212.500 C203.500,215.000 197.500,215.500 190.000,214.000 Z" fill="#f8dd8b" stroke="#fde047" stroke-width="1.700"/>
  <path d="M194.500,176.500 C197.000,174.000 200.500,173.000 204.000,174.000" stroke="#fde047" stroke-width="1.200" fill="none" stroke-linecap="round"/>

  <circle cx="95.000" cy="236.000" r="18.000" fill="none" stroke="#fde047" stroke-width="2.000"/>
  <path d="M95.000,225.000 L95.000,236.000 L104.000,242.000" fill="none" stroke="#fde047" stroke-width="1.900" stroke-linecap="round"/>

  <path d="M116.000,252.000 C138.000,236.000 162.000,231.000 188.000,232.000" fill="none" stroke="#fde047" stroke-width="3.000" stroke-linecap="round"/>
  <path d="M188.000,232.000 L179.000,234.000 L183.000,225.000 Z" fill="#fde047"/>

  <g fill="#fde047">
    <circle cx="76.250" cy="92.500" r="1.700"/>
    <circle cx="93.500" cy="76.750" r="1.500"/>
    <circle cx="231.250" cy="82.750" r="1.850"/>
    <circle cx="248.500" cy="97.500" r="1.500"/>
    <circle cx="79.750" cy="242.250" r="1.650"/>
    <circle cx="95.250" cy="258.250" r="1.450"/>
    <circle cx="228.750" cy="246.000" r="1.750"/>
    <circle cx="244.750" cy="262.500" r="1.500"/>
  </g>
</svg>
