<svg xmlns="http://www.w3.org/2000/svg" width="324" height="324" viewBox="0 0 324 324">
  <defs>
    <radialGradient id="bgGrad086" cx="50%" cy="42%" r="82%">
      <stop offset="0%" stop-color="#934016"/>
      <stop offset="100%" stop-color="#7c2d12"/>
    </radialGradient>
    <radialGradient id="glow086" cx="52%" cy="46%" r="60%">
      <stop offset="0%" stop-color="#dbeafe" stop-opacity="0.45"/>
      <stop offset="100%" stop-color="#dbeafe" stop-opacity="0"/>
    </radialGradient>
  </defs>

  <rect x="0.000" y="0.000" width="324.000" height="324.000" fill="url(#bgGrad086)"/>
  <circle cx="162.000" cy="162.000" r="152.000" fill="none" stroke="#93c5fd" stroke-width="3.000"/>
  <circle cx="162.000" cy="165.000" r="112.000" fill="url(#glow086)"/>
  <ellipse cx="162.000" cy="232.000" rx="86.000" ry="11.000" fill="#93c5fd" opacity="0.18"/>

  <circle cx="132.000" cy="116.000" r="10.500" fill="none" stroke="#93c5fd" stroke-width="2.300"/>
  <path d="M132.000,128.000 L132.000,174.000" stroke="#93c5fd" stroke-width="2.500" stroke-linecap="round"/>
  <path d="M132.000,143.000 L110.000,158.000" stroke="#93c5fd" stroke-width="2.400" stroke-linecap="round"/>
  <path d="M132.000,143.000 L150.000,154.000" stroke="#93c5fd" stroke-width="2.400" stroke-linecap="round"/>
  <path d="M132.000,174.000 L113.000,204.000" stroke="#93c5fd" stroke-width="2.500" stroke-linecap="round"/>
  <path d="M132.000,174.000 L172.000,165.000" stroke="#93c5fd" stroke-width="2.900" stroke-linecap="round"/>

  <circle cx="198.000" cy="118.000" r="10.000" fill="none" stroke="#93c5fd" stroke-width="2.300"/>
  <path d="M198.000,130.000 L198.000,176.000" stroke="#93c5fd" stroke-width="2.500" stroke-linecap="round"/>
  <path d="M198.000,145.000 L181.000,158.000" stroke="#93c5fd" stroke-width="2.300" stroke-linecap="round"/>
  <path d="M198.000,145.000 L216.000,155.000" stroke="#93c5fd" stroke-width="2.300" stroke-linecap="round"/>
  <path d="M198.000,176.000 L182.000,204.000" stroke="#93c5fd" stroke-width="2.500" stroke-linecap="round"/>
  <path d="M198.000,176.000 L214.000,203.000" stroke="#93c5fd" stroke-width="2.500" stroke-linecap="round"/>

  <rect x="170.000" y="151.000" width="18.000" height="22.000" rx="3.000" fill="none" stroke="#93c5fd" stroke-width="2.100"/>
  <path d="M188.000,155.000 C196.000,152.000 202.000,147.000 206.000,140.000" fill="none" stroke="#93c5fd" stroke-width="1.800" stroke-linecap="round"/>
  <path d="M188.000,161.000 C199.000,160.000 210.000,154.000 217.000,145.000" fill="none" stroke="#93c5fd" stroke-width="1.800" stroke-linecap="round"/>
  <path d="M188.000,167.000 C200.000,168.000 212.000,164.000 221.000,156.000" fill="none" stroke="#93c5fd" stroke-width="1.800" stroke-linecap="round"/>

  <path d="M90.000,123.000 C103.000,107.000 120.000,95.000 140.000,89.000" fill="none" stroke="#93c5fd" stroke-width="1.700" stroke-linecap="round"/>
  <path d="M234.000,123.000 C221.000,107.000 204.000,95.000 184.000,89.000" fill="none" stroke="#93c5fd" stroke-width="1.700" stroke-linecap="round"/>

  <g fill="#93c5fd">
    <circle cx="76.250" cy="92.500" r="1.700"/>
    <circle cx="93.500" cy="76.750" r="1.500"/>
    <circle cx="231.250" cy="82.750" r="1.850"/>
    <circle cx="248.500" cy="97.500" r="1.500"/>
    <circle cx="79.750" cy="242.250" r="1.650"/>
    <circle cx="95.250" cy="258.250" r="1.450"/>
    <circle cx="228.750" cy="246.000" r="1.750"/>
    <circle cx="244.750" cy="262.500" r="1.500"/>
  </g>
</svg>
