<svg xmlns="http://www.w3.org/2000/svg" width="324" height="324" viewBox="0 0 324 324">
  <defs>
    <radialGradient id="bgGrad088" cx="50%" cy="42%" r="82%">
      <stop offset="0%" stop-color="#934016"/>
      <stop offset="100%" stop-color="#7c2d12"/>
    </radialGradient>
    <radialGradient id="helmGlow088" cx="50%" cy="45%" r="68%">
      <stop offset="0%" stop-color="#dbeafe" stop-opacity="0.45"/>
      <stop offset="100%" stop-color="#dbeafe" stop-opacity="0"/>
    </radialGradient>
  </defs>

  <rect x="0.000" y="0.000" width="324.000" height="324.000" fill="url(#bgGrad088)"/>
  <circle cx="162.000" cy="162.000" r="152.000" fill="none" stroke="#93c5fd" stroke-width="3.000"/>

  <circle cx="162.000" cy="145.000" r="46.000" fill="url(#helmGlow088)"/>
  <ellipse cx="162.000" cy="230.000" rx="84.000" ry="10.000" fill="#93c5fd" opacity="0.18"/>

  <path d="M124.000,118.000 C135.000,99.000 189.000,99.000 200.000,118.000 L195.000,163.000 C184.000,177.000 140.000,177.000 129.000,163.000 Z" fill="none" stroke="#93c5fd" stroke-width="2.500"/>
  <path d="M137.000,118.000 V160.000" stroke="#93c5fd" stroke-width="1.300"/>
  <path d="M146.000,116.000 V165.000" stroke="#93c5fd" stroke-width="1.300"/>
  <path d="M155.000,114.000 V168.000" stroke="#93c5fd" stroke-width="1.300"/>
  <path d="M164.000,114.000 V168.000" stroke="#93c5fd" stroke-width="1.300"/>
  <path d="M173.000,116.000 V165.000" stroke="#93c5fd" stroke-width="1.300"/>
  <path d="M182.000,118.000 V160.000" stroke="#93c5fd" stroke-width="1.300"/>

  <path d="M136.000,187.000 L162.000,154.000 L188.000,187.000" fill="none" stroke="#93c5fd" stroke-width="2.600" stroke-linecap="round" stroke-linejoin="round"/>
  <path d="M150.000,188.000 V216.000" stroke="#93c5fd" stroke-width="2.500" stroke-linecap="round"/>
  <path d="M174.000,188.000 V216.000" stroke="#93c5fd" stroke-width="2.500" stroke-linecap="round"/>

  <path d="M106.000,206.000 L236.000,124.000" stroke="#93c5fd" stroke-width="2.600" stroke-linecap="round"/>
  <path d="M100.000,198.000 L230.000,116.000" stroke="#93c5fd" stroke-width="2.000" stroke-linecap="round"/>
  <circle cx="238.000" cy="123.000" r="4.200" fill="none" stroke="#93c5fd" stroke-width="1.900"/>

  <g fill="#93c5fd">
    <circle cx="76.250" cy="92.500" r="1.700"/>
    <circle cx="93.500" cy="76.750" r="1.500"/>
    <circle cx="231.250" cy="82.750" r="1.850"/>
    <circle cx="248.500" cy="97.500" r="1.500"/>
    <circle cx="79.750" cy="242.250" r="1.650"/>
    <circle cx="95.250" cy="258.250" r="1.450"/>
    <circle cx="228.750" cy="246.000" r="1.750"/>
    <circle cx="244.750" cy="262.500" r="1.500"/>
  </g>
</svg>
