<svg xmlns="http://www.w3.org/2000/svg" width="324" height="324" viewBox="0 0 324 324">
  <defs>
    <radialGradient id="bgGrad089" cx="50%" cy="42%" r="82%">
      <stop offset="0%" stop-color="#934016"/>
      <stop offset="100%" stop-color="#7c2d12"/>
    </radialGradient>
    <radialGradient id="pisteGlow089" cx="50%" cy="70%" r="52%">
      <stop offset="0%" stop-color="#dbeafe" stop-opacity="0.34"/>
      <stop offset="100%" stop-color="#dbeafe" stop-opacity="0"/>
    </radialGradient>
  </defs>

  <rect x="0.000" y="0.000" width="324.000" height="324.000" fill="url(#bgGrad089)"/>
  <circle cx="162.000" cy="162.000" r="152.000" fill="none" stroke="#93c5fd" stroke-width="3.000"/>
  <ellipse cx="162.000" cy="225.000" rx="96.000" ry="18.000" fill="url(#pisteGlow089)"/>

  <rect x="86.000" y="212.000" width="152.000" height="24.000" rx="4.000" fill="none" stroke="#93c5fd" stroke-width="1.900"/>
  <path d="M92.000,220.000 H232.000" stroke="#93c5fd" stroke-width="1.200"/>
  <path d="M92.000,228.000 H232.000" stroke="#93c5fd" stroke-width="1.200"/>

  <circle cx="126.000" cy="128.000" r="10.000" fill="none" stroke="#93c5fd" stroke-width="2.200"/>
  <path d="M126.000,140.000 L126.000,184.000" stroke="#93c5fd" stroke-width="2.500" stroke-linecap="round"/>
  <path d="M126.000,154.000 L107.000,168.000" stroke="#93c5fd" stroke-width="2.300" stroke-linecap="round"/>
  <path d="M126.000,154.000 L147.000,160.000" stroke="#93c5fd" stroke-width="2.300" stroke-linecap="round"/>
  <path d="M126.000,184.000 L111.000,206.000" stroke="#93c5fd" stroke-width="2.400" stroke-linecap="round"/>
  <path d="M126.000,184.000 L143.000,206.000" stroke="#93c5fd" stroke-width="2.400" stroke-linecap="round"/>
  <path d="M147.000,160.000 L192.000,154.000" stroke="#93c5fd" stroke-width="2.200" stroke-linecap="round"/>

  <circle cx="198.000" cy="126.000" r="10.000" fill="none" stroke="#93c5fd" stroke-width="2.200"/>
  <path d="M198.000,138.000 L198.000,183.000" stroke="#93c5fd" stroke-width="2.500" stroke-linecap="round"/>
  <path d="M198.000,152.000 L216.000,166.000" stroke="#93c5fd" stroke-width="2.300" stroke-linecap="round"/>
  <path d="M198.000,152.000 L178.000,160.000" stroke="#93c5fd" stroke-width="2.300" stroke-linecap="round"/>
  <path d="M198.000,183.000 L182.000,205.000" stroke="#93c5fd" stroke-width="2.400" stroke-linecap="round"/>
  <path d="M198.000,183.000 L214.000,206.000" stroke="#93c5fd" stroke-width="2.400" stroke-linecap="round"/>
  <path d="M178.000,160.000 L131.000,166.000" stroke="#93c5fd" stroke-width="2.200" stroke-linecap="round"/>

  <circle cx="244.000" cy="106.000" r="4.200" fill="none" stroke="#93c5fd" stroke-width="1.900"/>
  <circle cx="256.000" cy="106.000" r="4.200" fill="none" stroke="#93c5fd" stroke-width="1.900"/>
  <path d="M240.000,106.000 H204.000" stroke="#93c5fd" stroke-width="1.600" stroke-linecap="round"/>

  <g fill="#93c5fd">
    <circle cx="76.250" cy="92.500" r="1.700"/>
    <circle cx="93.500" cy="76.750" r="1.500"/>
    <circle cx="231.250" cy="82.750" r="1.850"/>
    <circle cx="248.500" cy="97.500" r="1.500"/>
    <circle cx="79.750" cy="242.250" r="1.650"/>
    <circle cx="95.250" cy="258.250" r="1.450"/>
    <circle cx="228.750" cy="246.000" r="1.750"/>
    <circle cx="244.750" cy="262.500" r="1.500"/>
  </g>
</svg>
