<svg xmlns="http://www.w3.org/2000/svg" width="324" height="324" viewBox="0 0 324 324">
  <defs>
    <radialGradient id="bgGrad090" cx="50%" cy="42%" r="82%">
      <stop offset="0%" stop-color="#934016"/>
      <stop offset="100%" stop-color="#7c2d12"/>
    </radialGradient>
    <radialGradient id="glow090" cx="50%" cy="44%" r="62%">
      <stop offset="0%" stop-color="#dbeafe" stop-opacity="0.40"/>
      <stop offset="100%" stop-color="#dbeafe" stop-opacity="0"/>
    </radialGradient>
  </defs>

  <rect x="0.000" y="0.000" width="324.000" height="324.000" fill="url(#bgGrad090)"/>
  <circle cx="162.000" cy="162.000" r="152.000" fill="none" stroke="#93c5fd" stroke-width="3.000"/>
  <circle cx="162.000" cy="144.000" r="112.000" fill="url(#glow090)"/>

  <path d="M118.000,238.000 C138.000,210.000 152.000,188.000 162.000,168.000 C172.000,188.000 186.000,210.000 206.000,238.000" fill="none" stroke="#93c5fd" stroke-width="2.400" stroke-linecap="round"/>
  <path d="M132.000,214.000 C144.000,196.000 152.000,182.000 162.000,170.000 C172.000,182.000 180.000,196.000 192.000,214.000" fill="none" stroke="#ffffff" stroke-width="1.900" stroke-linecap="round" opacity="0.90"/>

  <path d="M147.000,86.000 C140.000,104.000 140.000,126.000 147.000,146.000" fill="none" stroke="#93c5fd" stroke-width="2.200" stroke-linecap="round"/>
  <path d="M155.000,84.000 C149.000,104.000 149.000,126.000 155.000,146.000" fill="none" stroke="#ffffff" stroke-width="1.700" stroke-linecap="round" opacity="0.88"/>
  <path d="M163.000,82.000 C158.000,102.000 158.000,126.000 163.000,148.000" fill="none" stroke="#93c5fd" stroke-width="2.200" stroke-linecap="round"/>
  <path d="M171.000,84.000 C166.000,104.000 166.000,126.000 171.000,146.000" fill="none" stroke="#ffffff" stroke-width="1.700" stroke-linecap="round" opacity="0.88"/>
  <path d="M179.000,86.000 C174.000,104.000 174.000,126.000 179.000,146.000" fill="none" stroke="#93c5fd" stroke-width="2.200" stroke-linecap="round"/>
  <path d="M145.000,146.000 L179.000,146.000" stroke="#93c5fd" stroke-width="3.200" stroke-linecap="round"/>
  <path d="M148.000,150.000 L176.000,150.000" stroke="#ffffff" stroke-width="1.700" stroke-linecap="round" opacity="0.85"/>
  <path d="M140.000,88.000 L184.000,88.000" stroke="#93c5fd" stroke-width="2.400" stroke-linecap="round"/>
  <path d="M162.000,106.000 C160.000,124.000 160.000,142.000 162.000,160.000" fill="none" stroke="#93c5fd" stroke-width="2.000" stroke-linecap="round"/>
  <circle cx="162.000" cy="170.000" r="12.000" fill="#fef3c7" stroke="#93c5fd" stroke-width="2.200"/>
  <circle cx="162.000" cy="170.000" r="3.200" fill="#93c5fd"/>

  <g fill="#93c5fd">
    <circle cx="76.250" cy="92.500" r="1.700"/>
    <circle cx="93.500" cy="76.750" r="1.500"/>
    <circle cx="231.250" cy="82.750" r="1.850"/>
    <circle cx="248.500" cy="97.500" r="1.500"/>
    <circle cx="79.750" cy="242.250" r="1.650"/>
    <circle cx="95.250" cy="258.250" r="1.450"/>
    <circle cx="228.750" cy="246.000" r="1.750"/>
    <circle cx="244.750" cy="262.500" r="1.500"/>
  </g>
</svg>
