<svg xmlns="http://www.w3.org/2000/svg" width="324" height="324" viewBox="0 0 324 324">
  <defs>
    <radialGradient id="bgGrad091" cx="50%" cy="42%" r="82%">
      <stop offset="0%" stop-color="#934016"/>
      <stop offset="100%" stop-color="#7c2d12"/>
    </radialGradient>
    <radialGradient id="glow091" cx="50%" cy="44%" r="60%">
      <stop offset="0%" stop-color="#dbeafe" stop-opacity="0.40"/>
      <stop offset="100%" stop-color="#dbeafe" stop-opacity="0"/>
    </radialGradient>
  </defs>

  <rect x="0.000" y="0.000" width="324.000" height="324.000" fill="url(#bgGrad091)"/>
  <circle cx="162.000" cy="162.000" r="152.000" fill="none" stroke="#93c5fd" stroke-width="3.000"/>
  <circle cx="162.000" cy="144.000" r="110.000" fill="url(#glow091)"/>

  <rect x="92.000" y="146.000" width="140.000" height="16.000" rx="8.000" fill="#93c5fd"/>
  <rect x="104.000" y="134.000" width="116.000" height="40.000" rx="10.000" fill="none" stroke="#ffffff" stroke-width="2.000" opacity="0.86"/>
  <path d="M110.000,154.000 C120.000,142.000 138.000,136.000 162.000,136.000 C186.000,136.000 204.000,142.000 214.000,154.000" fill="none" stroke="#ffffff" stroke-width="1.800" stroke-linecap="round" opacity="0.90"/>
  <circle cx="216.000" cy="150.000" r="16.000" fill="#fef3c7" stroke="#93c5fd" stroke-width="2.200"/>
  <circle cx="216.000" cy="150.000" r="5.200" fill="#93c5fd"/>
  <path d="M136.000,206.000 C148.000,194.000 158.000,188.000 162.000,188.000 C166.000,188.000 176.000,194.000 188.000,206.000" fill="none" stroke="#93c5fd" stroke-width="2.000" stroke-linecap="round"/>
  <path d="M150.000,196.000 C152.000,188.000 156.000,182.000 162.000,178.000 C168.000,182.000 172.000,188.000 174.000,196.000" fill="none" stroke="#93c5fd" stroke-width="1.600" stroke-linecap="round"/>

  <g fill="#93c5fd">
    <circle cx="76.250" cy="92.500" r="1.700"/>
    <circle cx="93.500" cy="76.750" r="1.500"/>
    <circle cx="231.250" cy="82.750" r="1.850"/>
    <circle cx="248.500" cy="97.500" r="1.500"/>
    <circle cx="79.750" cy="242.250" r="1.650"/>
    <circle cx="95.250" cy="258.250" r="1.450"/>
    <circle cx="228.750" cy="246.000" r="1.750"/>
    <circle cx="244.750" cy="262.500" r="1.500"/>
  </g>
</svg>
