<svg xmlns="http://www.w3.org/2000/svg" width="324" height="324" viewBox="0 0 324 324">
  <defs>
    <radialGradient id="bgGrad097" cx="50%" cy="42%" r="80%">
      <stop offset="0%" stop-color="#a12828"/>
      <stop offset="100%" stop-color="#671515"/>
    </radialGradient>
  </defs>

  <rect x="0.000" y="0.000" width="324.000" height="324.000" fill="url(#bgGrad097)"/>
  <circle cx="162.000" cy="162.000" r="152.000" fill="none" stroke="#fef08a" stroke-width="3.000"/>

  <circle cx="162.000" cy="152.000" r="58.000" fill="none" stroke="#fef08a" stroke-width="12.000"/>
  <circle cx="162.000" cy="152.000" r="39.000" fill="none" stroke="#fef08a" stroke-width="3.000"/>
  <path d="M162.000,82.000 V106.000" stroke="#fef08a" stroke-width="8.000" stroke-linecap="round"/>
  <path d="M162.000,198.000 V222.000" stroke="#fef08a" stroke-width="8.000" stroke-linecap="round"/>
  <path d="M92.000,152.000 H116.000" stroke="#fef08a" stroke-width="8.000" stroke-linecap="round"/>
  <path d="M208.000,152.000 H232.000" stroke="#fef08a" stroke-width="8.000" stroke-linecap="round"/>

  <path d="M118.000,242.000 C129.000,226.000 145.000,224.000 159.000,236.000 C175.000,248.000 191.000,248.000 206.000,236.000" fill="none" stroke="#fef08a" stroke-width="2.700" stroke-linecap="round"/>
  <path d="M122.000,250.000 C135.000,238.000 147.000,238.000 160.000,248.000 C173.000,258.000 185.000,258.000 198.000,248.000" fill="none" stroke="#fef08a" stroke-width="2.200" stroke-linecap="round"/>

  <g fill="#fef08a">
    <circle cx="76.250" cy="92.500" r="1.700"/>
    <circle cx="93.500" cy="76.750" r="1.500"/>
    <circle cx="231.250" cy="82.750" r="1.850"/>
    <circle cx="248.500" cy="97.500" r="1.500"/>
    <circle cx="79.750" cy="242.250" r="1.650"/>
    <circle cx="95.250" cy="258.250" r="1.450"/>
    <circle cx="228.750" cy="246.000" r="1.750"/>
    <circle cx="244.750" cy="262.500" r="1.500"/>
  </g>
</svg>
