<svg xmlns="http://www.w3.org/2000/svg" width="324" height="324" viewBox="0 0 324 324">
  <defs>
    <radialGradient id="bgGrad099" cx="50%" cy="42%" r="78%">
      <stop offset="0%" stop-color="#1a4f86"/>
      <stop offset="100%" stop-color="#082741"/>
    </radialGradient>
    <radialGradient id="lotusCore099" cx="50%" cy="45%" r="68%">
      <stop offset="0%" stop-color="#ffe7c2"/>
      <stop offset="100%" stop-color="#f59e0b"/>
    </radialGradient>
    <linearGradient id="petalGrad099" x1="0%" y1="0%" x2="100%" y2="100%">
      <stop offset="0%" stop-color="#fff5df"/>
      <stop offset="100%" stop-color="#f7cf88"/>
    </linearGradient>
  </defs>

  <rect x="0.000" y="0.000" width="324.000" height="324.000" fill="url(#bgGrad099)"/>
  <circle cx="162.000" cy="162.000" r="152.000" fill="none" stroke="#f59e0b" stroke-width="3.000"/>

  <!-- 光環 -->
  <circle cx="162.000" cy="150.000" r="66.000" fill="#f9dca5" opacity="0.160"/>

  <!-- 蓮花外瓣 -->
  <path d="M162.000,96.000 C146.500,112.000 145.000,134.000 162.000,150.000 C179.000,134.000 177.500,112.000 162.000,96.000 Z" fill="url(#petalGrad099)" stroke="#f59e0b" stroke-width="1.700"/>
  <path d="M124.000,112.000 C117.000,133.000 123.500,153.500 144.000,161.000 C151.000,139.500 143.500,121.500 124.000,112.000 Z" fill="url(#petalGrad099)" stroke="#f59e0b" stroke-width="1.700"/>
  <path d="M200.000,112.000 C180.500,121.500 173.000,139.500 180.000,161.000 C200.500,153.500 207.000,133.000 200.000,112.000 Z" fill="url(#petalGrad099)" stroke="#f59e0b" stroke-width="1.700"/>
  <path d="M106.000,154.000 C106.500,176.500 119.500,192.000 142.500,194.500 C142.000,172.500 129.000,157.500 106.000,154.000 Z" fill="url(#petalGrad099)" stroke="#f59e0b" stroke-width="1.700"/>
  <path d="M218.000,154.000 C195.000,157.500 182.000,172.500 181.500,194.500 C204.500,192.000 217.500,176.500 218.000,154.000 Z" fill="url(#petalGrad099)" stroke="#f59e0b" stroke-width="1.700"/>

  <!-- 蓮花內瓣 -->
  <path d="M162.000,128.000 C152.000,138.500 151.000,153.000 162.000,163.000 C173.000,153.000 172.000,138.500 162.000,128.000 Z" fill="url(#lotusCore099)"/>
  <path d="M139.000,141.000 C134.000,154.000 137.500,166.500 150.500,172.000 C155.500,159.000 151.500,148.000 139.000,141.000 Z" fill="url(#lotusCore099)"/>
  <path d="M185.000,141.000 C172.500,148.000 168.500,159.000 173.500,172.000 C186.500,166.500 190.000,154.000 185.000,141.000 Z" fill="url(#lotusCore099)"/>

  <!-- 托座與仁心 -->
  <ellipse cx="162.000" cy="213.000" rx="50.000" ry="14.000" fill="#f59e0b" opacity="0.900"/>
  <path d="M162.000,250.000 C150.500,239.750 136.500,231.500 136.500,217.750 C136.500,208.500 143.250,202.000 152.500,202.000 C156.750,202.000 160.000,204.000 162.000,206.875 C164.000,204.000 167.250,202.000 171.500,202.000 C180.750,202.000 187.500,208.500 187.500,217.750 C187.500,231.500 173.500,239.750 162.000,250.000 Z" fill="#f7c66e"/>
  <path d="M153.250,213.000 C153.250,209.750 155.750,207.250 159.000,207.250" stroke="#fff0d0" stroke-width="1.250" fill="none" stroke-linecap="round"/>

  <!-- 點描 -->
  <g fill="#f59e0b">
    <circle cx="72.500" cy="88.250" r="1.700"/>
    <circle cx="88.750" cy="72.875" r="1.500"/>
    <circle cx="236.250" cy="83.625" r="1.800"/>
    <circle cx="252.000" cy="97.500" r="1.450"/>
    <circle cx="74.250" cy="244.500" r="1.650"/>
    <circle cx="90.625" cy="260.250" r="1.450"/>
    <circle cx="233.500" cy="248.875" r="1.750"/>
    <circle cx="248.875" cy="263.500" r="1.500"/>
    <circle cx="162.000" cy="54.250" r="1.850"/>
    <circle cx="162.000" cy="295.750" r="1.850"/>
  </g>
</svg>
