<svg xmlns="http://www.w3.org/2000/svg" width="324" height="324" viewBox="0 0 324 324">
  <defs>
    <radialGradient id="bgGrad101" cx="50%" cy="42%" r="80%">
      <stop offset="0%" stop-color="#a12828"/>
      <stop offset="100%" stop-color="#671515"/>
    </radialGradient>
  </defs>

  <rect x="0.000" y="0.000" width="324.000" height="324.000" fill="url(#bgGrad101)"/>
  <circle cx="162.000" cy="162.000" r="152.000" fill="none" stroke="#fef08a" stroke-width="3.000"/>

  <circle cx="131.000" cy="126.000" r="17.000" fill="none" stroke="#fef08a" stroke-width="3.000"/>
  <circle cx="193.000" cy="126.000" r="17.000" fill="none" stroke="#fef08a" stroke-width="3.000"/>
  <path d="M110.000,210.000 C114.000,181.000 127.000,165.000 144.000,165.000 C152.000,165.000 158.000,168.000 162.000,174.000 C166.000,168.000 172.000,165.000 180.000,165.000 C197.000,165.000 210.000,181.000 214.000,210.000" fill="none" stroke="#fef08a" stroke-width="3.000" stroke-linecap="round"/>
  <path d="M150.000,205.000 L162.000,217.000 L174.000,205.000" fill="none" stroke="#fef08a" stroke-width="2.300" stroke-linecap="round" stroke-linejoin="round"/>
  <path d="M162.000,184.000 V217.000" stroke="#fef08a" stroke-width="2.300" stroke-linecap="round"/>

  <g fill="#fef08a">
    <circle cx="76.250" cy="92.500" r="1.700"/>
    <circle cx="93.500" cy="76.750" r="1.500"/>
    <circle cx="231.250" cy="82.750" r="1.850"/>
    <circle cx="248.500" cy="97.500" r="1.500"/>
    <circle cx="79.750" cy="242.250" r="1.650"/>
    <circle cx="95.250" cy="258.250" r="1.450"/>
    <circle cx="228.750" cy="246.000" r="1.750"/>
    <circle cx="244.750" cy="262.500" r="1.500"/>
  </g>
</svg>
