<svg xmlns="http://www.w3.org/2000/svg" width="324" height="324" viewBox="0 0 324 324">
  <defs>
    <radialGradient id="bgGrad123" cx="50%" cy="42%" r="82%">
      <stop offset="0%" stop-color="#312e81"/>
      <stop offset="100%" stop-color="#1e1b4b"/>
    </radialGradient>
    <radialGradient id="glow123" cx="50%" cy="44%" r="62%">
      <stop offset="0%" stop-color="#fecdd3" stop-opacity="0.34"/>
      <stop offset="100%" stop-color="#fecdd3" stop-opacity="0"/>
    </radialGradient>
  </defs>

  <rect x="0.000" y="0.000" width="324.000" height="324.000" fill="url(#bgGrad123)"/>
  <circle cx="162.000" cy="162.000" r="152.000" fill="none" stroke="#fca5a5" stroke-width="3.000"/>
  <circle cx="162.000" cy="144.000" r="112.000" fill="url(#glow123)"/>

  <rect x="90.000" y="110.000" width="144.000" height="106.000" rx="10.000" fill="none" stroke="#fca5a5" stroke-width="4.000"/>
  <path d="M96.000,142.000 H228.000" stroke="#fca5a5" stroke-width="3.000" stroke-linecap="round"/>
  <rect x="104.000" y="142.000" width="12.000" height="58.000" fill="#fca5a5"/>
  <rect x="124.000" y="142.000" width="12.000" height="58.000" fill="#fca5a5"/>
  <rect x="144.000" y="142.000" width="12.000" height="58.000" fill="#fca5a5"/>
  <rect x="164.000" y="142.000" width="12.000" height="58.000" fill="#fca5a5"/>
  <rect x="184.000" y="142.000" width="12.000" height="58.000" fill="#fca5a5"/>
  <rect x="204.000" y="142.000" width="12.000" height="58.000" fill="#fca5a5"/>
  <rect x="118.000" y="142.000" width="10.000" height="34.000" fill="#1e1b4b"/>
  <rect x="138.000" y="142.000" width="10.000" height="34.000" fill="#1e1b4b"/>
  <rect x="178.000" y="142.000" width="10.000" height="34.000" fill="#1e1b4b"/>
  <rect x="198.000" y="142.000" width="10.000" height="34.000" fill="#1e1b4b"/>
  <path d="M112.000,236.000 C126.000,228.000 144.000,224.000 162.000,224.000 C180.000,224.000 198.000,228.000 212.000,236.000" fill="none" stroke="#fca5a5" stroke-width="2.000" stroke-linecap="round"/>

  <g fill="#fca5a5">
    <circle cx="76.250" cy="92.500" r="1.700"/>
    <circle cx="93.500" cy="76.750" r="1.500"/>
    <circle cx="231.250" cy="82.750" r="1.850"/>
    <circle cx="248.500" cy="97.500" r="1.500"/>
    <circle cx="79.750" cy="242.250" r="1.650"/>
    <circle cx="95.250" cy="258.250" r="1.450"/>
    <circle cx="228.750" cy="246.000" r="1.750"/>
    <circle cx="244.750" cy="262.500" r="1.500"/>
  </g>
</svg>
