<svg xmlns="http://www.w3.org/2000/svg" width="324" height="324" viewBox="0 0 324 324">
  <defs>
    <radialGradient id="bgGrad126" cx="50%" cy="42%" r="80%">
      <stop offset="0%" stop-color="#a12828"/>
      <stop offset="100%" stop-color="#671515"/>
    </radialGradient>
  </defs>

  <rect x="0.000" y="0.000" width="324.000" height="324.000" fill="url(#bgGrad126)"/>
  <circle cx="162.000" cy="162.000" r="152.000" fill="none" stroke="#fef08a" stroke-width="3.000"/>

  <path d="M162.000,228.000 C162.000,228.000 122.000,198.000 122.000,166.000 C122.000,148.000 134.000,134.000 150.000,134.000 C157.000,134.000 163.000,137.000 167.000,143.000 C171.000,137.000 177.000,134.000 184.000,134.000 C200.000,134.000 212.000,148.000 212.000,166.000 C212.000,198.000 172.000,228.000 172.000,228.000 Z" fill="none" stroke="#fef08a" stroke-width="3.000"/>
  <circle cx="162.000" cy="98.000" r="13.000" fill="none" stroke="#fef08a" stroke-width="2.700"/>
  <path d="M138.000,122.000 C146.000,112.000 154.000,108.000 162.000,108.000 C170.000,108.000 178.000,112.000 186.000,122.000" fill="none" stroke="#fef08a" stroke-width="2.500" stroke-linecap="round"/>
  <path d="M116.000,246.000 C130.000,236.000 146.000,236.000 160.000,246.000 C174.000,256.000 190.000,256.000 204.000,246.000" fill="none" stroke="#fef08a" stroke-width="2.300" stroke-linecap="round"/>

  <g fill="#fef08a">
    <circle cx="76.250" cy="92.500" r="1.700"/>
    <circle cx="93.500" cy="76.750" r="1.500"/>
    <circle cx="231.250" cy="82.750" r="1.850"/>
    <circle cx="248.500" cy="97.500" r="1.500"/>
    <circle cx="79.750" cy="242.250" r="1.650"/>
    <circle cx="95.250" cy="258.250" r="1.450"/>
    <circle cx="228.750" cy="246.000" r="1.750"/>
    <circle cx="244.750" cy="262.500" r="1.500"/>
  </g>
</svg>
