<svg xmlns="http://www.w3.org/2000/svg" width="324" height="324" viewBox="0 0 324 324">
  <defs>
    <radialGradient id="bgGrad129" cx="50%" cy="42%" r="80%">
      <stop offset="0%" stop-color="#1d693c"/>
      <stop offset="100%" stop-color="#0d3f24"/>
    </radialGradient>
    <linearGradient id="totemGrad129" x1="0%" y1="0%" x2="100%" y2="100%">
      <stop offset="0%" stop-color="#fff5cc"/>
      <stop offset="100%" stop-color="#fde047"/>
    </linearGradient>
  </defs>

  <rect x="0.000" y="0.000" width="324.000" height="324.000" fill="url(#bgGrad129)"/>
  <circle cx="162.000" cy="162.000" r="152.000" fill="none" stroke="#fde047" stroke-width="3.000"/>

  <rect x="145.000" y="88.000" width="34.000" height="136.000" rx="8.000" fill="url(#totemGrad129)" stroke="#fde047" stroke-width="2.100"/>
  <circle cx="162.000" cy="112.000" r="9.000" fill="none" stroke="#fde047" stroke-width="1.700"/>
  <ellipse cx="162.000" cy="145.000" rx="12.000" ry="8.000" fill="none" stroke="#fde047" stroke-width="1.700"/>
  <path d="M150.000,176.000 L174.000,176.000" stroke="#fde047" stroke-width="2.000" stroke-linecap="round"/>

  <ellipse cx="162.000" cy="246.000" rx="40.000" ry="16.000" fill="#f7da77" stroke="#fde047" stroke-width="2.000"/>
  <path d="M126.000,246.000 C137.000,238.000 149.000,234.000 162.000,234.000 C175.000,234.000 187.000,238.000 198.000,246.000" fill="none" stroke="#fde047" stroke-width="1.600"/>
  <path d="M120.000,206.000 C135.000,196.000 150.000,192.000 162.000,192.000 C174.000,192.000 189.000,196.000 204.000,206.000" fill="none" stroke="#fde047" stroke-width="2.400" stroke-linecap="round"/>

  <g fill="#fde047">
    <circle cx="76.250" cy="92.500" r="1.700"/>
    <circle cx="93.500" cy="76.750" r="1.500"/>
    <circle cx="231.250" cy="82.750" r="1.850"/>
    <circle cx="248.500" cy="97.500" r="1.500"/>
    <circle cx="79.750" cy="242.250" r="1.650"/>
    <circle cx="95.250" cy="258.250" r="1.450"/>
    <circle cx="228.750" cy="246.000" r="1.750"/>
    <circle cx="244.750" cy="262.500" r="1.500"/>
  </g>
</svg>
