<svg xmlns="http://www.w3.org/2000/svg" width="324" height="324" viewBox="0 0 324 324">
  <defs>
    <radialGradient id="bgGrad131" cx="50%" cy="42%" r="82%">
      <stop offset="0%" stop-color="#934016"/>
      <stop offset="100%" stop-color="#7c2d12"/>
    </radialGradient>
    <radialGradient id="glow131" cx="50%" cy="45%" r="62%">
      <stop offset="0%" stop-color="#dbeafe" stop-opacity="0.38"/>
      <stop offset="100%" stop-color="#dbeafe" stop-opacity="0"/>
    </radialGradient>
  </defs>

  <rect x="0.000" y="0.000" width="324.000" height="324.000" fill="url(#bgGrad131)"/>
  <circle cx="162.000" cy="162.000" r="152.000" fill="none" stroke="#93c5fd" stroke-width="3.000"/>
  <circle cx="162.000" cy="144.000" r="112.000" fill="url(#glow131)"/>

  <circle cx="162.000" cy="162.000" r="64.000" fill="none" stroke="#93c5fd" stroke-width="7.500"/>
  <circle cx="156.000" cy="126.000" r="12.000" fill="none" stroke="#93c5fd" stroke-width="2.300"/>
  <path d="M156.000,138.000 L156.000,184.000" stroke="#93c5fd" stroke-width="2.800" stroke-linecap="round"/>
  <path d="M156.000,154.000 L132.000,170.000" stroke="#93c5fd" stroke-width="2.600" stroke-linecap="round"/>
  <path d="M156.000,154.000 L180.000,168.000" stroke="#93c5fd" stroke-width="2.600" stroke-linecap="round"/>
  <path d="M156.000,184.000 L138.000,210.000" stroke="#93c5fd" stroke-width="2.600" stroke-linecap="round"/>
  <path d="M156.000,184.000 L178.000,202.000" stroke="#93c5fd" stroke-width="2.600" stroke-linecap="round"/>
  <path d="M178.000,202.000 L210.000,190.000" stroke="#93c5fd" stroke-width="4.000" stroke-linecap="round"/>
  <path d="M210.000,190.000 L226.000,192.000" stroke="#ffffff" stroke-width="2.000" stroke-linecap="round" opacity="0.88"/>
  <path d="M124.000,236.000 C140.000,226.000 188.000,226.000 206.000,236.000" fill="none" stroke="#93c5fd" stroke-width="2.000" stroke-linecap="round"/>
  <path d="M114.000,102.000 C132.000,90.000 188.000,90.000 206.000,102.000" fill="none" stroke="#93c5fd" stroke-width="1.800" stroke-linecap="round"/>

  <g fill="#93c5fd">
    <circle cx="76.250" cy="92.500" r="1.700"/>
    <circle cx="93.500" cy="76.750" r="1.500"/>
    <circle cx="231.250" cy="82.750" r="1.850"/>
    <circle cx="248.500" cy="97.500" r="1.500"/>
    <circle cx="79.750" cy="242.250" r="1.650"/>
    <circle cx="95.250" cy="258.250" r="1.450"/>
    <circle cx="228.750" cy="246.000" r="1.750"/>
    <circle cx="244.750" cy="262.500" r="1.500"/>
  </g>
</svg>
