<svg xmlns="http://www.w3.org/2000/svg" width="324" height="324" viewBox="0 0 324 324">
  <defs>
    <radialGradient id="bgGrad132" cx="50%" cy="42%" r="82%">
      <stop offset="0%" stop-color="#7c2d12"/>
      <stop offset="100%" stop-color="#431407"/>
    </radialGradient>
    <radialGradient id="glow132" cx="50%" cy="44%" r="62%">
      <stop offset="0%" stop-color="#fef3c7" stop-opacity="0.34"/>
      <stop offset="100%" stop-color="#fef3c7" stop-opacity="0"/>
    </radialGradient>
  </defs>

  <rect x="0.000" y="0.000" width="324.000" height="324.000" fill="url(#bgGrad132)"/>
  <circle cx="162.000" cy="162.000" r="152.000" fill="none" stroke="#fef08a" stroke-width="3.000"/>
  <circle cx="162.000" cy="144.000" r="112.000" fill="url(#glow132)"/>

  <rect x="92.000" y="138.000" width="140.000" height="68.000" rx="28.000" fill="none" stroke="#fef08a" stroke-width="4.200"/>
  <path d="M122.000,172.000 H142.000" stroke="#fef08a" stroke-width="3.400" stroke-linecap="round"/>
  <path d="M132.000,162.000 V182.000" stroke="#fef08a" stroke-width="3.400" stroke-linecap="round"/>
  <circle cx="186.000" cy="166.000" r="5.000" fill="#fef08a"/>
  <circle cx="202.000" cy="178.000" r="5.000" fill="#fef08a"/>
  <path d="M150.000,138.000 C154.000,126.000 162.000,120.000 174.000,120.000" fill="none" stroke="#ffffff" stroke-width="2.000" stroke-linecap="round" opacity="0.88"/>
  <path d="M174.000,120.000 C180.000,116.000 186.000,116.000 192.000,120.000" fill="none" stroke="#ffffff" stroke-width="2.000" stroke-linecap="round" opacity="0.88"/>
  <path d="M210.000,112.000 L218.000,124.000 L232.000,126.000 L222.000,136.000 L224.000,150.000 L212.000,144.000 L200.000,150.000 L202.000,136.000 L192.000,126.000 L206.000,124.000 Z" fill="none" stroke="#fef08a" stroke-width="2.000" stroke-linejoin="round"/>

  <g fill="#fef08a">
    <circle cx="76.250" cy="92.500" r="1.700"/>
    <circle cx="93.500" cy="76.750" r="1.500"/>
    <circle cx="231.250" cy="82.750" r="1.850"/>
    <circle cx="248.500" cy="97.500" r="1.500"/>
    <circle cx="79.750" cy="242.250" r="1.650"/>
    <circle cx="95.250" cy="258.250" r="1.450"/>
    <circle cx="228.750" cy="246.000" r="1.750"/>
    <circle cx="244.750" cy="262.500" r="1.500"/>
  </g>
</svg>
