<svg xmlns="http://www.w3.org/2000/svg" width="324" height="324" viewBox="0 0 324 324">
  <defs>
    <radialGradient id="bgGrad136" cx="50%" cy="42%" r="82%">
      <stop offset="0%" stop-color="#934016"/>
      <stop offset="100%" stop-color="#7c2d12"/>
    </radialGradient>
    <radialGradient id="glow136" cx="50%" cy="45%" r="62%">
      <stop offset="0%" stop-color="#dbeafe" stop-opacity="0.38"/>
      <stop offset="100%" stop-color="#dbeafe" stop-opacity="0"/>
    </radialGradient>
  </defs>

  <rect x="0.000" y="0.000" width="324.000" height="324.000" fill="url(#bgGrad136)"/>
  <circle cx="162.000" cy="162.000" r="152.000" fill="none" stroke="#93c5fd" stroke-width="3.000"/>
  <circle cx="162.000" cy="144.000" r="112.000" fill="url(#glow136)"/>

  <circle cx="162.000" cy="158.000" r="76.000" fill="none" stroke="#93c5fd" stroke-width="10.000"/>
  <circle cx="162.000" cy="158.000" r="50.000" fill="none" stroke="#ffffff" stroke-width="4.000"/>
  <circle cx="162.000" cy="158.000" r="18.000" fill="#93c5fd"/>
  <circle cx="162.000" cy="158.000" r="6.000" fill="#ffffff"/>
  <circle cx="162.000" cy="108.000" r="4.600" fill="#93c5fd"/>
  <circle cx="205.000" cy="132.000" r="4.600" fill="#93c5fd"/>
  <circle cx="205.000" cy="184.000" r="4.600" fill="#93c5fd"/>
  <circle cx="162.000" cy="208.000" r="4.600" fill="#93c5fd"/>
  <circle cx="119.000" cy="184.000" r="4.600" fill="#93c5fd"/>
  <circle cx="119.000" cy="132.000" r="4.600" fill="#93c5fd"/>
  <path d="M104.000,238.000 C122.000,224.000 146.000,218.000 162.000,218.000 C178.000,218.000 202.000,224.000 220.000,238.000" fill="none" stroke="#93c5fd" stroke-width="2.100" stroke-linecap="round"/>
  <path d="M90.000,252.000 C112.000,238.000 138.000,232.000 162.000,232.000 C186.000,232.000 212.000,238.000 234.000,252.000" fill="none" stroke="#93c5fd" stroke-width="1.800" stroke-linecap="round"/>
  <path d="M94.000,102.000 C112.000,90.000 136.000,84.000 162.000,84.000 C188.000,84.000 212.000,90.000 230.000,102.000" fill="none" stroke="#93c5fd" stroke-width="1.800" stroke-linecap="round"/>

  <g fill="#93c5fd">
    <circle cx="76.250" cy="92.500" r="1.700"/>
    <circle cx="93.500" cy="76.750" r="1.500"/>
    <circle cx="231.250" cy="82.750" r="1.850"/>
    <circle cx="248.500" cy="97.500" r="1.500"/>
    <circle cx="79.750" cy="242.250" r="1.650"/>
    <circle cx="95.250" cy="258.250" r="1.450"/>
    <circle cx="228.750" cy="246.000" r="1.750"/>
    <circle cx="244.750" cy="262.500" r="1.500"/>
  </g>
</svg>
