<svg xmlns="http://www.w3.org/2000/svg" width="324" height="324" viewBox="0 0 324 324">
  <defs>
    <radialGradient id="bgGrad157" cx="50%" cy="42%" r="82%">
      <stop offset="0%" stop-color="#7c2d12"/>
      <stop offset="100%" stop-color="#431407"/>
    </radialGradient>
    <radialGradient id="glow157" cx="50%" cy="44%" r="62%">
      <stop offset="0%" stop-color="#fef3c7" stop-opacity="0.34"/>
      <stop offset="100%" stop-color="#fef3c7" stop-opacity="0"/>
    </radialGradient>
  </defs>

  <rect x="0.000" y="0.000" width="324.000" height="324.000" fill="url(#bgGrad157)"/>
  <circle cx="162.000" cy="162.000" r="152.000" fill="none" stroke="#fef08a" stroke-width="3.000"/>
  <circle cx="162.000" cy="144.000" r="112.000" fill="url(#glow157)"/>

  <rect x="92.000" y="118.000" width="140.000" height="92.000" rx="12.000" fill="none" stroke="#fef08a" stroke-width="4.000"/>
  <path d="M92.000,118.000 L130.000,94.000 L240.000,94.000 L202.000,118.000" fill="none" stroke="#fef08a" stroke-width="4.000" stroke-linejoin="round"/>
  <path d="M112.000,106.000 L126.000,98.000" stroke="#ffffff" stroke-width="2.000" stroke-linecap="round" opacity="0.88"/>
  <path d="M140.000,106.000 L154.000,98.000" stroke="#ffffff" stroke-width="2.000" stroke-linecap="round" opacity="0.88"/>
  <path d="M168.000,106.000 L182.000,98.000" stroke="#ffffff" stroke-width="2.000" stroke-linecap="round" opacity="0.88"/>
  <path d="M196.000,106.000 L210.000,98.000" stroke="#ffffff" stroke-width="2.000" stroke-linecap="round" opacity="0.88"/>
  <path d="M146.000,142.000 L192.000,164.000 L146.000,186.000 Z" fill="none" stroke="#fef08a" stroke-width="3.000" stroke-linejoin="round"/>
  <path d="M98.000,236.000 C118.000,224.000 138.000,218.000 162.000,218.000 C186.000,218.000 206.000,224.000 226.000,236.000" fill="none" stroke="#fef08a" stroke-width="2.000" stroke-linecap="round"/>

  <g fill="#fef08a">
    <circle cx="76.250" cy="92.500" r="1.700"/>
    <circle cx="93.500" cy="76.750" r="1.500"/>
    <circle cx="231.250" cy="82.750" r="1.850"/>
    <circle cx="248.500" cy="97.500" r="1.500"/>
    <circle cx="79.750" cy="242.250" r="1.650"/>
    <circle cx="95.250" cy="258.250" r="1.450"/>
    <circle cx="228.750" cy="246.000" r="1.750"/>
    <circle cx="244.750" cy="262.500" r="1.500"/>
  </g>
</svg>
