<svg xmlns="http://www.w3.org/2000/svg" width="324" height="324" viewBox="0 0 324 324">
  <defs>
    <radialGradient id="bgGrad163" cx="50%" cy="42%" r="80%">
      <stop offset="0%" stop-color="#1d693c"/>
      <stop offset="100%" stop-color="#0d3f24"/>
    </radialGradient>
    <linearGradient id="medalGrad163" x1="0%" y1="0%" x2="100%" y2="100%">
      <stop offset="0%" stop-color="#fff6d2"/>
      <stop offset="100%" stop-color="#fde047"/>
    </linearGradient>
  </defs>

  <rect x="0.000" y="0.000" width="324.000" height="324.000" fill="url(#bgGrad163)"/>
  <circle cx="162.000" cy="162.000" r="152.000" fill="none" stroke="#fde047" stroke-width="3.000"/>

  <circle cx="162.000" cy="154.000" r="58.000" fill="none" stroke="#fde047" stroke-width="2.600"/>
  <ellipse cx="162.000" cy="154.000" rx="34.000" ry="58.000" fill="none" stroke="#fde047" stroke-width="1.700"/>
  <ellipse cx="162.000" cy="154.000" rx="58.000" ry="20.000" fill="none" stroke="#fde047" stroke-width="1.700"/>

  <circle cx="162.000" cy="224.000" r="26.000" fill="url(#medalGrad163)" stroke="#fde047" stroke-width="2.000"/>
  <path d="M162.000,208.000 L166.500,221.500 L180.000,221.500 L168.500,230.000 L173.000,243.500 L162.000,235.500 L151.000,243.500 L155.500,230.000 L144.000,221.500 L157.500,221.500 Z" fill="#fde047"/>

  <path d="M142.000,199.000 L152.000,176.000" stroke="#fde047" stroke-width="3.000" stroke-linecap="round"/>
  <path d="M182.000,199.000 L172.000,176.000" stroke="#fde047" stroke-width="3.000" stroke-linecap="round"/>

  <g fill="#fde047">
    <circle cx="112.000" cy="96.000" r="4.600"/>
    <circle cx="212.000" cy="96.000" r="4.600"/>
    <circle cx="96.000" cy="146.000" r="4.600"/>
    <circle cx="228.000" cy="146.000" r="4.600"/>
  </g>
  <g stroke="#fde047" stroke-width="1.400" fill="none">
    <path d="M112.000,96.000 L96.000,146.000"/>
    <path d="M212.000,96.000 L228.000,146.000"/>
    <path d="M96.000,146.000 L162.000,154.000"/>
    <path d="M228.000,146.000 L162.000,154.000"/>
  </g>

  <g fill="#fde047">
    <circle cx="76.250" cy="92.500" r="1.700"/>
    <circle cx="93.500" cy="76.750" r="1.500"/>
    <circle cx="231.250" cy="82.750" r="1.850"/>
    <circle cx="248.500" cy="97.500" r="1.500"/>
    <circle cx="79.750" cy="242.250" r="1.650"/>
    <circle cx="95.250" cy="258.250" r="1.450"/>
    <circle cx="228.750" cy="246.000" r="1.750"/>
    <circle cx="244.750" cy="262.500" r="1.500"/>
  </g>
</svg>
