<svg xmlns="http://www.w3.org/2000/svg" width="324" height="324" viewBox="0 0 324 324">
  <defs>
    <radialGradient id="bgGrad166" cx="50%" cy="42%" r="82%">
      <stop offset="0%" stop-color="#934016"/>
      <stop offset="100%" stop-color="#7c2d12"/>
    </radialGradient>
    <radialGradient id="glow166" cx="50%" cy="45%" r="62%">
      <stop offset="0%" stop-color="#dbeafe" stop-opacity="0.38"/>
      <stop offset="100%" stop-color="#dbeafe" stop-opacity="0"/>
    </radialGradient>
  </defs>

  <rect x="0.000" y="0.000" width="324.000" height="324.000" fill="url(#bgGrad166)"/>
  <circle cx="162.000" cy="162.000" r="152.000" fill="none" stroke="#93c5fd" stroke-width="3.000"/>
  <circle cx="162.000" cy="144.000" r="112.000" fill="url(#glow166)"/>

  <circle cx="162.000" cy="162.000" r="64.000" fill="none" stroke="#93c5fd" stroke-width="6.000"/>
  <path d="M96.000,144.000 C112.000,116.000 138.000,100.000 162.000,100.000 C186.000,100.000 212.000,116.000 228.000,144.000" fill="none" stroke="#93c5fd" stroke-width="2.300" stroke-linecap="round"/>
  <path d="M228.000,144.000 C242.000,170.000 236.000,202.000 212.000,224.000" fill="none" stroke="#93c5fd" stroke-width="2.300" stroke-linecap="round"/>
  <path d="M96.000,180.000 C112.000,208.000 138.000,224.000 162.000,224.000 C186.000,224.000 212.000,208.000 228.000,180.000" fill="none" stroke="#93c5fd" stroke-width="2.300" stroke-linecap="round"/>
  <circle cx="136.000" cy="132.000" r="10.000" fill="none" stroke="#93c5fd" stroke-width="2.000"/>
  <path d="M136.000,142.000 L148.000,164.000" stroke="#93c5fd" stroke-width="2.200" stroke-linecap="round"/>
  <path d="M148.000,164.000 L174.000,164.000" stroke="#93c5fd" stroke-width="2.200" stroke-linecap="round"/>
  <path d="M148.000,164.000 L136.000,190.000" stroke="#93c5fd" stroke-width="2.200" stroke-linecap="round"/>
  <circle cx="188.000" cy="148.000" r="10.000" fill="none" stroke="#93c5fd" stroke-width="2.000"/>
  <path d="M188.000,158.000 L174.000,176.000" stroke="#93c5fd" stroke-width="2.200" stroke-linecap="round"/>
  <path d="M174.000,176.000 L150.000,182.000" stroke="#93c5fd" stroke-width="2.200" stroke-linecap="round"/>
  <path d="M174.000,176.000 L188.000,198.000" stroke="#93c5fd" stroke-width="2.200" stroke-linecap="round"/>
  <path d="M150.000,182.000 C156.000,188.000 168.000,188.000 174.000,182.000" fill="none" stroke="#ffffff" stroke-width="2.000" stroke-linecap="round" opacity="0.88"/>
  <path d="M110.000,250.000 C128.000,238.000 194.000,238.000 214.000,250.000" fill="none" stroke="#93c5fd" stroke-width="2.000" stroke-linecap="round"/>

  <g fill="#93c5fd">
    <circle cx="76.250" cy="92.500" r="1.700"/>
    <circle cx="93.500" cy="76.750" r="1.500"/>
    <circle cx="231.250" cy="82.750" r="1.850"/>
    <circle cx="248.500" cy="97.500" r="1.500"/>
    <circle cx="79.750" cy="242.250" r="1.650"/>
    <circle cx="95.250" cy="258.250" r="1.450"/>
    <circle cx="228.750" cy="246.000" r="1.750"/>
    <circle cx="244.750" cy="262.500" r="1.500"/>
  </g>
</svg>
