<svg xmlns="http://www.w3.org/2000/svg" width="324" height="324" viewBox="0 0 324 324">
  <defs>
    <radialGradient id="bgGrad167" cx="50%" cy="42%" r="82%">
      <stop offset="0%" stop-color="#312e81"/>
      <stop offset="100%" stop-color="#1e1b4b"/>
    </radialGradient>
    <radialGradient id="glow167" cx="50%" cy="44%" r="62%">
      <stop offset="0%" stop-color="#fecdd3" stop-opacity="0.34"/>
      <stop offset="100%" stop-color="#fecdd3" stop-opacity="0"/>
    </radialGradient>
  </defs>

  <rect x="0.000" y="0.000" width="324.000" height="324.000" fill="url(#bgGrad167)"/>
  <circle cx="162.000" cy="162.000" r="152.000" fill="none" stroke="#fca5a5" stroke-width="3.000"/>
  <circle cx="162.000" cy="144.000" r="112.000" fill="url(#glow167)"/>

  <path d="M130.000,128.000 L188.000,118.000 C206.000,116.000 220.000,130.000 218.000,148.000 C216.000,166.000 202.000,180.000 184.000,182.000 L126.000,192.000 Z" fill="none" stroke="#fca5a5" stroke-width="4.000" stroke-linejoin="round"/>
  <path d="M130.000,128.000 L126.000,192.000" stroke="#fca5a5" stroke-width="4.000"/>
  <path d="M146.000,143.000 L196.000,136.000" stroke="#fca5a5" stroke-width="2.500"/>
  <path d="M145.000,154.000 L193.000,148.000" stroke="#fca5a5" stroke-width="2.500"/>
  <path d="M144.000,165.000 L190.000,160.000" stroke="#fca5a5" stroke-width="2.500"/>
  <path d="M143.000,176.000 L187.000,172.000" stroke="#fca5a5" stroke-width="2.500"/>
  <circle cx="114.000" cy="201.000" r="8.000" fill="none" stroke="#fca5a5" stroke-width="3.000"/>
  <circle cx="130.000" cy="206.000" r="6.000" fill="none" stroke="#fca5a5" stroke-width="3.000"/>
  <path d="M208.000,122.000 V168.000" stroke="#fca5a5" stroke-width="3.500" stroke-linecap="round"/>
  <circle cx="198.000" cy="176.000" r="7.000" fill="none" stroke="#fca5a5" stroke-width="3.000"/>

  <g fill="#fca5a5">
    <circle cx="76.250" cy="92.500" r="1.700"/>
    <circle cx="93.500" cy="76.750" r="1.500"/>
    <circle cx="231.250" cy="82.750" r="1.850"/>
    <circle cx="248.500" cy="97.500" r="1.500"/>
    <circle cx="79.750" cy="242.250" r="1.650"/>
    <circle cx="95.250" cy="258.250" r="1.450"/>
    <circle cx="228.750" cy="246.000" r="1.750"/>
    <circle cx="244.750" cy="262.500" r="1.500"/>
  </g>
</svg>
