<svg xmlns="http://www.w3.org/2000/svg" width="324" height="324" viewBox="0 0 324 324">
  <defs>
    <radialGradient id="bgGrad168" cx="50%" cy="42%" r="80%">
      <stop offset="0%" stop-color="#1d693c"/>
      <stop offset="100%" stop-color="#0d3f24"/>
    </radialGradient>
    <linearGradient id="tileGrad168" x1="0%" y1="0%" x2="100%" y2="100%">
      <stop offset="0%" stop-color="#fff4cb"/>
      <stop offset="100%" stop-color="#fde047"/>
    </linearGradient>
  </defs>

  <rect x="0.000" y="0.000" width="324.000" height="324.000" fill="url(#bgGrad168)"/>
  <circle cx="162.000" cy="162.000" r="152.000" fill="none" stroke="#fde047" stroke-width="3.000"/>

  <rect x="92.000" y="112.000" width="74.000" height="74.000" rx="8.000" fill="url(#tileGrad168)" stroke="#fde047" stroke-width="2.000" transform="rotate(-12 129 149)"/>
  <circle cx="117.000" cy="139.000" r="3.000" fill="#fde047"/>
  <circle cx="141.000" cy="152.000" r="3.000" fill="#fde047"/>
  <circle cx="125.000" cy="165.000" r="3.000" fill="#fde047"/>

  <rect x="166.000" y="130.000" width="76.000" height="56.000" rx="7.000" fill="none" stroke="#fde047" stroke-width="2.000" transform="rotate(8 204 158)"/>
  <path d="M178.000,144.000 L226.000,151.000" stroke="#fde047" stroke-width="1.600"/>
  <path d="M176.000,159.000 L224.000,166.000" stroke="#fde047" stroke-width="1.600"/>

  <path d="M162.000,214.000 C151.000,214.000 143.000,206.000 143.000,196.000 C143.000,188.000 148.000,181.500 155.000,179.500 C155.000,173.000 158.000,167.000 162.000,167.000 C166.000,167.000 169.000,173.000 169.000,179.500 C176.000,181.500 181.000,188.000 181.000,196.000 C181.000,206.000 173.000,214.000 162.000,214.000 Z" fill="#fde047"/>

  <path d="M100.000,236.000 C122.000,226.000 138.000,226.000 162.000,236.000 C186.000,246.000 202.000,246.000 224.000,236.000" fill="none" stroke="#fde047" stroke-width="2.600" stroke-linecap="round"/>

  <g fill="#fde047">
    <circle cx="76.250" cy="92.500" r="1.700"/>
    <circle cx="93.500" cy="76.750" r="1.500"/>
    <circle cx="231.250" cy="82.750" r="1.850"/>
    <circle cx="248.500" cy="97.500" r="1.500"/>
    <circle cx="79.750" cy="242.250" r="1.650"/>
    <circle cx="95.250" cy="258.250" r="1.450"/>
    <circle cx="228.750" cy="246.000" r="1.750"/>
    <circle cx="244.750" cy="262.500" r="1.500"/>
  </g>
</svg>
