<svg xmlns="http://www.w3.org/2000/svg" width="324" height="324" viewBox="0 0 324 324">
  <defs>
    <radialGradient id="bgGrad171" cx="50%" cy="42%" r="82%">
      <stop offset="0%" stop-color="#701a75"/>
      <stop offset="100%" stop-color="#4a044e"/>
    </radialGradient>
    <radialGradient id="glow171" cx="50%" cy="44%" r="62%">
      <stop offset="0%" stop-color="#fef08a" stop-opacity="0.30"/>
      <stop offset="100%" stop-color="#fef08a" stop-opacity="0"/>
    </radialGradient>
  </defs>

  <rect x="0.000" y="0.000" width="324.000" height="324.000" fill="url(#bgGrad171)"/>
  <circle cx="162.000" cy="162.000" r="152.000" fill="none" stroke="#fef08a" stroke-width="3.000"/>
  <circle cx="162.000" cy="144.000" r="112.000" fill="url(#glow171)"/>

  <circle cx="194.000" cy="160.000" r="38.000" fill="none" stroke="#fef08a" stroke-width="4.000"/>
  <circle cx="194.000" cy="160.000" r="22.000" fill="none" stroke="#fef08a" stroke-width="3.000"/>
  <circle cx="194.000" cy="160.000" r="7.000" fill="#fef08a"/>

  <path d="M132.000,98.000 C108.000,122.000 108.000,198.000 132.000,222.000" fill="none" stroke="#fef08a" stroke-width="5.000" stroke-linecap="round"/>
  <path d="M132.000,98.000 C164.000,122.000 164.000,198.000 132.000,222.000" fill="none" stroke="#fef08a" stroke-width="4.000" stroke-linecap="round"/>
  <path d="M132.000,160.000 L200.000,160.000" stroke="#fef08a" stroke-width="3.000" stroke-linecap="round"/>
  <path d="M200.000,160.000 L184.000,154.000 L184.000,166.000 Z" fill="#fef08a"/>

  <g fill="#f5d0fe">
    <circle cx="76.250" cy="92.500" r="1.700"/>
    <circle cx="93.500" cy="76.750" r="1.500"/>
    <circle cx="231.250" cy="82.750" r="1.850"/>
    <circle cx="248.500" cy="97.500" r="1.500"/>
    <circle cx="79.750" cy="242.250" r="1.650"/>
    <circle cx="95.250" cy="258.250" r="1.450"/>
    <circle cx="228.750" cy="246.000" r="1.750"/>
    <circle cx="244.750" cy="262.500" r="1.500"/>
  </g>
</svg>
