<svg xmlns="http://www.w3.org/2000/svg" width="324" height="324" viewBox="0 0 324 324">
  <defs>
    <radialGradient id="bgGrad179" cx="50%" cy="42%" r="82%">
      <stop offset="0%" stop-color="#701a75"/>
      <stop offset="100%" stop-color="#4a044e"/>
    </radialGradient>
    <radialGradient id="glow179" cx="50%" cy="44%" r="62%">
      <stop offset="0%" stop-color="#fef08a" stop-opacity="0.30"/>
      <stop offset="100%" stop-color="#fef08a" stop-opacity="0"/>
    </radialGradient>
  </defs>

  <rect x="0.000" y="0.000" width="324.000" height="324.000" fill="url(#bgGrad179)"/>
  <circle cx="162.000" cy="162.000" r="152.000" fill="none" stroke="#fef08a" stroke-width="3.000"/>
  <circle cx="162.000" cy="144.000" r="112.000" fill="url(#glow179)"/>

  <circle cx="142.000" cy="176.000" r="28.000" fill="none" stroke="#fef08a" stroke-width="4.000"/>
  <path d="M142.000,148.000 V124.000" stroke="#fef08a" stroke-width="4.000" stroke-linecap="round"/>
  <path d="M142.000,204.000 V224.000" stroke="#fef08a" stroke-width="4.000" stroke-linecap="round"/>
  <path d="M114.000,176.000 H94.000" stroke="#fef08a" stroke-width="4.000" stroke-linecap="round"/>
  <path d="M170.000,176.000 H190.000" stroke="#fef08a" stroke-width="4.000" stroke-linecap="round"/>
  <path d="M122.000,156.000 L108.000,142.000" stroke="#fef08a" stroke-width="3.000" stroke-linecap="round"/>
  <path d="M162.000,156.000 L176.000,142.000" stroke="#fef08a" stroke-width="3.000" stroke-linecap="round"/>

  <path d="M214.000,210.000 C214.000,188.000 198.000,172.000 176.000,172.000" fill="none" stroke="#fef08a" stroke-width="4.000" stroke-linecap="round"/>
  <circle cx="214.000" cy="210.000" r="11.000" fill="none" stroke="#fef08a" stroke-width="4.000"/>

  <g fill="#f5d0fe">
    <circle cx="76.250" cy="92.500" r="1.700"/>
    <circle cx="93.500" cy="76.750" r="1.500"/>
    <circle cx="231.250" cy="82.750" r="1.850"/>
    <circle cx="248.500" cy="97.500" r="1.500"/>
    <circle cx="79.750" cy="242.250" r="1.650"/>
    <circle cx="95.250" cy="258.250" r="1.450"/>
    <circle cx="228.750" cy="246.000" r="1.750"/>
    <circle cx="244.750" cy="262.500" r="1.500"/>
  </g>
</svg>
