<svg xmlns="http://www.w3.org/2000/svg" width="324" height="324" viewBox="0 0 324 324">
  <defs>
    <radialGradient id="bgGrad185" cx="50%" cy="42%" r="80%">
      <stop offset="0%" stop-color="#1d693c"/>
      <stop offset="100%" stop-color="#0d3f24"/>
    </radialGradient>
  </defs>

  <rect x="0.000" y="0.000" width="324.000" height="324.000" fill="url(#bgGrad185)"/>
  <circle cx="162.000" cy="162.000" r="152.000" fill="none" stroke="#fde047" stroke-width="3.000"/>

  <circle cx="110.000" cy="214.000" r="34.000" fill="none" stroke="#fde047" stroke-width="3.200"/>
  <circle cx="214.000" cy="214.000" r="34.000" fill="none" stroke="#fde047" stroke-width="3.200"/>
  <circle cx="110.000" cy="214.000" r="8.000" fill="#fde047"/>
  <circle cx="214.000" cy="214.000" r="8.000" fill="#fde047"/>

  <path d="M110.000,214.000 L146.000,168.000 L184.000,168.000 L214.000,214.000" fill="none" stroke="#fde047" stroke-width="3.000" stroke-linecap="round" stroke-linejoin="round"/>
  <path d="M146.000,168.000 L132.000,132.000 L162.000,132.000" fill="none" stroke="#fde047" stroke-width="2.700" stroke-linecap="round" stroke-linejoin="round"/>
  <path d="M184.000,168.000 L199.000,142.000" fill="none" stroke="#fde047" stroke-width="2.700" stroke-linecap="round"/>
  <path d="M128.000,132.000 L171.000,132.000" stroke="#fde047" stroke-width="3.000" stroke-linecap="round"/>
  <circle cx="146.000" cy="168.000" r="5.200" fill="#fde047"/>

  <g fill="#fde047">
    <circle cx="76.250" cy="92.500" r="1.700"/>
    <circle cx="93.500" cy="76.750" r="1.500"/>
    <circle cx="231.250" cy="82.750" r="1.850"/>
    <circle cx="248.500" cy="97.500" r="1.500"/>
    <circle cx="79.750" cy="242.250" r="1.650"/>
    <circle cx="95.250" cy="258.250" r="1.450"/>
    <circle cx="228.750" cy="246.000" r="1.750"/>
    <circle cx="244.750" cy="262.500" r="1.500"/>
  </g>
</svg>
