<svg xmlns="http://www.w3.org/2000/svg" width="324" height="324" viewBox="0 0 324 324">
  <defs>
    <radialGradient id="bgGrad188" cx="50%" cy="42%" r="82%">
      <stop offset="0%" stop-color="#934016"/>
      <stop offset="100%" stop-color="#7c2d12"/>
    </radialGradient>
    <radialGradient id="glow188" cx="50%" cy="45%" r="62%">
      <stop offset="0%" stop-color="#dbeafe" stop-opacity="0.38"/>
      <stop offset="100%" stop-color="#dbeafe" stop-opacity="0"/>
    </radialGradient>
  </defs>

  <rect x="0.000" y="0.000" width="324.000" height="324.000" fill="url(#bgGrad188)"/>
  <circle cx="162.000" cy="162.000" r="152.000" fill="none" stroke="#93c5fd" stroke-width="3.000"/>
  <circle cx="162.000" cy="146.000" r="112.000" fill="url(#glow188)"/>

  <rect x="70.000" y="128.000" width="184.000" height="80.000" rx="10.000" fill="#2b1a0d" stroke="#93c5fd" stroke-width="2.200"/>
  <rect x="82.000" y="140.000" width="160.000" height="56.000" rx="8.000" fill="#0f172a" stroke="#93c5fd" stroke-width="1.500"/>
  <circle cx="112.000" cy="168.000" r="11.500" fill="#ef4444" stroke="#ffffff" stroke-width="1.400"/>
  <circle cx="140.000" cy="156.000" r="11.500" fill="#f59e0b" stroke="#ffffff" stroke-width="1.400"/>
  <circle cx="140.000" cy="180.000" r="11.500" fill="#22c55e" stroke="#ffffff" stroke-width="1.400"/>
  <circle cx="168.000" cy="168.000" r="11.500" fill="#fde047" stroke="#ffffff" stroke-width="1.400"/>
  <circle cx="196.000" cy="156.000" r="11.500" fill="#60a5fa" stroke="#ffffff" stroke-width="1.400"/>
  <circle cx="196.000" cy="180.000" r="11.500" fill="#a78bfa" stroke="#ffffff" stroke-width="1.400"/>
  <circle cx="224.000" cy="168.000" r="11.500" fill="#ffffff" stroke="#cbd5e1" stroke-width="1.400"/>
  <path d="M96.000,110.000 L152.000,136.000" stroke="#93c5fd" stroke-width="3.000" stroke-linecap="round"/>
  <path d="M98.000,114.000 L122.000,110.000" stroke="#ffffff" stroke-width="1.700" stroke-linecap="round" opacity="0.88"/>
  <path d="M96.000,228.000 C116.000,218.000 208.000,218.000 228.000,228.000" fill="none" stroke="#93c5fd" stroke-width="2.000" stroke-linecap="round"/>

  <g fill="#93c5fd">
    <circle cx="76.250" cy="92.500" r="1.700"/>
    <circle cx="93.500" cy="76.750" r="1.500"/>
    <circle cx="231.250" cy="82.750" r="1.850"/>
    <circle cx="248.500" cy="97.500" r="1.500"/>
    <circle cx="79.750" cy="242.250" r="1.650"/>
    <circle cx="95.250" cy="258.250" r="1.450"/>
    <circle cx="228.750" cy="246.000" r="1.750"/>
    <circle cx="244.750" cy="262.500" r="1.500"/>
  </g>
</svg>
