<svg xmlns="http://www.w3.org/2000/svg" width="324" height="324" viewBox="0 0 324 324">
  <defs>
    <radialGradient id="bgGrad190" cx="50%" cy="42%" r="82%">
      <stop offset="0%" stop-color="#934016"/>
      <stop offset="100%" stop-color="#7c2d12"/>
    </radialGradient>
    <radialGradient id="glow190" cx="50%" cy="45%" r="62%">
      <stop offset="0%" stop-color="#dbeafe" stop-opacity="0.38"/>
      <stop offset="100%" stop-color="#dbeafe" stop-opacity="0"/>
    </radialGradient>
  </defs>

  <rect x="0.000" y="0.000" width="324.000" height="324.000" fill="url(#bgGrad190)"/>
  <circle cx="162.000" cy="162.000" r="152.000" fill="none" stroke="#93c5fd" stroke-width="3.000"/>
  <circle cx="162.000" cy="144.000" r="112.000" fill="url(#glow190)"/>

  <circle cx="110.000" cy="110.000" r="8.000" fill="#93c5fd"/>
  <circle cx="214.000" cy="110.000" r="8.000" fill="#93c5fd"/>
  <path d="M110.000,110.000 L154.000,176.000" stroke="#93c5fd" stroke-width="8.000" stroke-linecap="round"/>
  <path d="M214.000,110.000 L170.000,176.000" stroke="#93c5fd" stroke-width="8.000" stroke-linecap="round"/>
  <path d="M126.000,194.000 L170.000,128.000" stroke="#ffffff" stroke-width="3.200" stroke-linecap="round" opacity="0.90"/>
  <path d="M198.000,194.000 L154.000,128.000" stroke="#ffffff" stroke-width="3.200" stroke-linecap="round" opacity="0.90"/>
  <circle cx="162.000" cy="208.000" r="26.000" fill="none" stroke="#93c5fd" stroke-width="3.000"/>
  <path d="M150.000,208.000 L174.000,208.000" stroke="#93c5fd" stroke-width="3.000" stroke-linecap="round"/>
  <path d="M162.000,196.000 L162.000,220.000" stroke="#93c5fd" stroke-width="3.000" stroke-linecap="round"/>
  <path d="M132.000,236.000 C142.000,226.000 152.000,222.000 162.000,222.000 C172.000,222.000 182.000,226.000 192.000,236.000" fill="none" stroke="#93c5fd" stroke-width="2.000" stroke-linecap="round"/>

  <g fill="#93c5fd">
    <circle cx="76.250" cy="92.500" r="1.700"/>
    <circle cx="93.500" cy="76.750" r="1.500"/>
    <circle cx="231.250" cy="82.750" r="1.850"/>
    <circle cx="248.500" cy="97.500" r="1.500"/>
    <circle cx="79.750" cy="242.250" r="1.650"/>
    <circle cx="95.250" cy="258.250" r="1.450"/>
    <circle cx="228.750" cy="246.000" r="1.750"/>
    <circle cx="244.750" cy="262.500" r="1.500"/>
  </g>
</svg>
