<svg xmlns="http://www.w3.org/2000/svg" width="324" height="324" viewBox="0 0 324 324">
  <defs>
    <radialGradient id="bgGrad191" cx="50%" cy="40%" r="80%">
      <stop offset="0%" stop-color="#215991"/>
      <stop offset="100%" stop-color="#082943"/>
    </radialGradient>
    <linearGradient id="ringGrad191" x1="0%" y1="0%" x2="100%" y2="100%">
      <stop offset="0%" stop-color="#ffe9c0"/>
      <stop offset="100%" stop-color="#f59e0b"/>
    </linearGradient>
    <radialGradient id="leafGrad191" cx="40%" cy="35%" r="78%">
      <stop offset="0%" stop-color="#fff2cf"/>
      <stop offset="100%" stop-color="#f5b645"/>
    </radialGradient>
  </defs>

  <rect x="0.000" y="0.000" width="324.000" height="324.000" fill="url(#bgGrad191)"/>
  <circle cx="162.000" cy="162.000" r="152.000" fill="none" stroke="#f59e0b" stroke-width="3.000"/>

  <!-- 循環箭頭 -->
  <path d="M112.000,118.000 C130.000,95.000 162.000,87.000 188.000,97.000 L180.500,105.500 L205.000,106.500 L200.500,82.000 L193.000,90.000 C160.000,75.000 120.000,86.000 96.000,116.000 Z" fill="url(#ringGrad191)"/>
  <path d="M212.000,132.000 C228.000,155.000 228.000,188.000 210.000,212.000 L205.500,201.500 L190.500,221.000 L214.500,227.500 L210.500,217.500 C234.000,188.000 235.000,147.000 214.000,118.000 Z" fill="url(#ringGrad191)"/>
  <path d="M193.000,224.000 C166.000,236.000 133.000,230.000 113.000,209.000 L124.000,206.500 L104.000,192.500 L95.500,216.000 L105.500,213.500 C131.000,240.000 173.000,249.000 207.000,233.000 Z" fill="url(#ringGrad191)"/>

  <!-- 中央嫩葉（永續） -->
  <path d="M136.000,173.000 C136.000,145.500 155.500,128.000 179.000,128.000 C200.000,128.000 214.000,145.500 214.000,168.500 C214.000,192.500 197.500,211.500 175.500,214.500 C153.500,217.500 136.000,198.500 136.000,173.000 Z" fill="url(#leafGrad191)" stroke="#f59e0b" stroke-width="2.200"/>
  <path d="M148.000,188.000 C158.500,176.000 170.000,166.000 188.000,154.500" stroke="#fff0cf" stroke-width="1.900" fill="none" stroke-linecap="round"/>
  <path d="M165.000,169.000 C164.000,162.500 161.500,157.500 156.500,152.000" stroke="#fff0cf" stroke-width="1.250" fill="none" stroke-linecap="round"/>

  <!-- 影響力波紋 -->
  <g stroke="#f59e0b" stroke-linecap="round" fill="none">
    <path d="M83.000,254.000 C110.000,242.000 138.000,242.000 162.000,254.000" stroke-width="2.000"/>
    <path d="M162.000,254.000 C186.000,266.000 214.000,266.000 241.000,254.000" stroke-width="2.000"/>
    <path d="M96.000,268.000 C118.000,259.500 140.000,259.500 162.000,268.000" stroke-width="1.450"/>
    <path d="M162.000,268.000 C184.000,276.500 206.000,276.500 228.000,268.000" stroke-width="1.450"/>
  </g>

  <!-- 點描 -->
  <g fill="#f59e0b">
    <circle cx="74.500" cy="88.500" r="1.700"/>
    <circle cx="90.750" cy="72.750" r="1.500"/>
    <circle cx="235.000" cy="84.250" r="1.850"/>
    <circle cx="251.250" cy="98.000" r="1.500"/>
    <circle cx="80.000" cy="242.000" r="1.650"/>
    <circle cx="94.750" cy="258.250" r="1.450"/>
    <circle cx="229.750" cy="246.500" r="1.750"/>
    <circle cx="245.500" cy="262.750" r="1.500"/>
  </g>
</svg>
