<svg xmlns="http://www.w3.org/2000/svg" width="324" height="324" viewBox="0 0 324 324">
  <defs>
    <radialGradient id="bgGrad194" cx="50%" cy="42%" r="82%">
      <stop offset="0%" stop-color="#701a75"/>
      <stop offset="100%" stop-color="#4a044e"/>
    </radialGradient>
    <radialGradient id="glow194" cx="50%" cy="44%" r="62%">
      <stop offset="0%" stop-color="#fef08a" stop-opacity="0.30"/>
      <stop offset="100%" stop-color="#fef08a" stop-opacity="0"/>
    </radialGradient>
  </defs>

  <rect x="0.000" y="0.000" width="324.000" height="324.000" fill="url(#bgGrad194)"/>
  <circle cx="162.000" cy="162.000" r="152.000" fill="none" stroke="#fef08a" stroke-width="3.000"/>
  <circle cx="162.000" cy="144.000" r="112.000" fill="url(#glow194)"/>

  <path d="M162.000,228.000 C130.000,208.000 112.000,188.000 108.000,164.000 C104.000,136.000 122.000,116.000 146.000,116.000 C156.000,116.000 166.000,120.000 174.000,128.000 C182.000,120.000 192.000,116.000 202.000,116.000 C226.000,116.000 244.000,136.000 240.000,164.000 C236.000,188.000 218.000,208.000 186.000,228.000" fill="none" stroke="#fef08a" stroke-width="4.000" stroke-linecap="round" stroke-linejoin="round"/>
  <circle cx="146.000" cy="154.000" r="10.000" fill="none" stroke="#fef08a" stroke-width="3.000"/>
  <circle cx="202.000" cy="154.000" r="10.000" fill="none" stroke="#fef08a" stroke-width="3.000"/>
  <circle cx="174.000" cy="170.000" r="12.000" fill="none" stroke="#fef08a" stroke-width="3.000"/>
  <path d="M128.000,206.000 C146.000,196.000 162.000,192.000 174.000,192.000 C186.000,192.000 202.000,196.000 220.000,206.000" fill="none" stroke="#fef08a" stroke-width="3.000" stroke-linecap="round"/>

  <g fill="#f5d0fe">
    <circle cx="76.250" cy="92.500" r="1.700"/>
    <circle cx="93.500" cy="76.750" r="1.500"/>
    <circle cx="231.250" cy="82.750" r="1.850"/>
    <circle cx="248.500" cy="97.500" r="1.500"/>
    <circle cx="79.750" cy="242.250" r="1.650"/>
    <circle cx="95.250" cy="258.250" r="1.450"/>
    <circle cx="228.750" cy="246.000" r="1.750"/>
    <circle cx="244.750" cy="262.500" r="1.500"/>
  </g>
</svg>
