<svg xmlns="http://www.w3.org/2000/svg" width="324" height="324" viewBox="0 0 324 324">
  <defs>
    <radialGradient id="bgGrad198" cx="50%" cy="42%" r="80%">
      <stop offset="0%" stop-color="#1d693c"/>
      <stop offset="100%" stop-color="#0d3f24"/>
    </radialGradient>
    <linearGradient id="noteGrad198" x1="0%" y1="0%" x2="100%" y2="100%">
      <stop offset="0%" stop-color="#fff4cb"/>
      <stop offset="100%" stop-color="#fde047"/>
    </linearGradient>
  </defs>

  <rect x="0.000" y="0.000" width="324.000" height="324.000" fill="url(#bgGrad198)"/>
  <circle cx="162.000" cy="162.000" r="152.000" fill="none" stroke="#fde047" stroke-width="3.000"/>

  <path d="M132.000,92.000 L207.000,78.000 V169.000 C207.000,188.000 192.000,203.000 173.000,203.000 C156.000,203.000 143.000,191.000 143.000,176.000 C143.000,160.000 157.000,149.000 173.000,149.000 C181.000,149.000 188.000,151.000 193.000,155.000 V113.000 L132.000,124.000 V195.000 C132.000,213.000 118.000,226.000 98.000,226.000 C81.000,226.000 68.000,214.000 68.000,199.000 C68.000,183.000 82.000,172.000 98.000,172.000 C106.000,172.000 113.000,174.000 118.000,178.000 V127.000 Z" fill="url(#noteGrad198)" stroke="#fde047" stroke-width="2.200"/>

  <path d="M224.000,145.000 L236.000,130.000 L248.000,145.000 L262.000,143.000 L254.000,159.000 L262.000,175.000 L248.000,173.000 L236.000,188.000 L224.000,173.000 L210.000,175.000 L218.000,159.000 L210.000,143.000 Z" fill="#fde047"/>
  <path d="M66.000,252.000 L82.000,252.000 L88.000,240.000 L95.000,264.000 L103.000,246.000 L112.000,258.000 L128.000,258.000" fill="none" stroke="#fde047" stroke-width="2.600" stroke-linecap="round" stroke-linejoin="round"/>

  <g fill="#fde047">
    <circle cx="76.250" cy="92.500" r="1.700"/>
    <circle cx="93.500" cy="76.750" r="1.500"/>
    <circle cx="231.250" cy="82.750" r="1.850"/>
    <circle cx="248.500" cy="97.500" r="1.500"/>
    <circle cx="79.750" cy="242.250" r="1.650"/>
    <circle cx="95.250" cy="258.250" r="1.450"/>
    <circle cx="228.750" cy="246.000" r="1.750"/>
    <circle cx="244.750" cy="262.500" r="1.500"/>
  </g>
</svg>
