<svg xmlns="http://www.w3.org/2000/svg" width="324" height="324" viewBox="0 0 324 324">
  <defs>
    <radialGradient id="bgGrad199" cx="50%" cy="42%" r="82%">
      <stop offset="0%" stop-color="#934016"/>
      <stop offset="100%" stop-color="#7c2d12"/>
    </radialGradient>
    <radialGradient id="glow199" cx="50%" cy="45%" r="62%">
      <stop offset="0%" stop-color="#dbeafe" stop-opacity="0.38"/>
      <stop offset="100%" stop-color="#dbeafe" stop-opacity="0"/>
    </radialGradient>
  </defs>

  <rect x="0.000" y="0.000" width="324.000" height="324.000" fill="url(#bgGrad199)"/>
  <circle cx="162.000" cy="162.000" r="152.000" fill="none" stroke="#93c5fd" stroke-width="3.000"/>
  <circle cx="162.000" cy="146.000" r="112.000" fill="url(#glow199)"/>

  <circle cx="162.000" cy="132.000" r="26.000" fill="none" stroke="#ffffff" stroke-width="3.000" opacity="0.90"/>
  <rect x="138.000" y="124.000" width="48.000" height="12.000" rx="6.000" fill="#93c5fd"/>
  <path d="M126.000,132.000 L138.000,132.000" stroke="#93c5fd" stroke-width="3.000" stroke-linecap="round"/>
  <path d="M186.000,132.000 L198.000,132.000" stroke="#93c5fd" stroke-width="3.000" stroke-linecap="round"/>

  <path d="M162.000,146.000 L162.000,188.000" stroke="#93c5fd" stroke-width="3.200" stroke-linecap="round"/>
  <path d="M162.000,160.000 L144.000,174.000" stroke="#93c5fd" stroke-width="2.400" stroke-linecap="round"/>
  <path d="M162.000,160.000 L180.000,174.000" stroke="#93c5fd" stroke-width="2.400" stroke-linecap="round"/>
  <path d="M162.000,188.000 L148.000,214.000" stroke="#93c5fd" stroke-width="2.600" stroke-linecap="round"/>
  <path d="M162.000,188.000 L176.000,214.000" stroke="#93c5fd" stroke-width="2.600" stroke-linecap="round"/>
  <path d="M148.000,214.000 L136.000,234.000" stroke="#93c5fd" stroke-width="5.000" stroke-linecap="round"/>
  <path d="M176.000,214.000 L188.000,234.000" stroke="#93c5fd" stroke-width="5.000" stroke-linecap="round"/>
  <path d="M132.000,234.000 L142.000,234.000" stroke="#ffffff" stroke-width="2.000" stroke-linecap="round" opacity="0.90"/>
  <path d="M184.000,234.000 L194.000,234.000" stroke="#ffffff" stroke-width="2.000" stroke-linecap="round" opacity="0.90"/>
  <path d="M98.000,252.000 C122.000,236.000 146.000,228.000 162.000,228.000 C178.000,228.000 202.000,236.000 226.000,252.000" fill="none" stroke="#93c5fd" stroke-width="2.000" stroke-linecap="round"/>

  <g fill="#93c5fd">
    <circle cx="76.250" cy="92.500" r="1.700"/>
    <circle cx="93.500" cy="76.750" r="1.500"/>
    <circle cx="231.250" cy="82.750" r="1.850"/>
    <circle cx="248.500" cy="97.500" r="1.500"/>
    <circle cx="79.750" cy="242.250" r="1.650"/>
    <circle cx="95.250" cy="258.250" r="1.450"/>
    <circle cx="228.750" cy="246.000" r="1.750"/>
    <circle cx="244.750" cy="262.500" r="1.500"/>
  </g>
</svg>
