<svg xmlns="http://www.w3.org/2000/svg" width="324" height="324" viewBox="0 0 324 324">
  <defs>
    <radialGradient id="bgGrad223" cx="50%" cy="42%" r="82%">
      <stop offset="0%" stop-color="#312e81"/>
      <stop offset="100%" stop-color="#1e1b4b"/>
    </radialGradient>
    <radialGradient id="glow223" cx="50%" cy="44%" r="62%">
      <stop offset="0%" stop-color="#fecdd3" stop-opacity="0.34"/>
      <stop offset="100%" stop-color="#fecdd3" stop-opacity="0"/>
    </radialGradient>
  </defs>

  <rect x="0.000" y="0.000" width="324.000" height="324.000" fill="url(#bgGrad223)"/>
  <circle cx="162.000" cy="162.000" r="152.000" fill="none" stroke="#fca5a5" stroke-width="3.000"/>
  <circle cx="162.000" cy="144.000" r="112.000" fill="url(#glow223)"/>

  <rect x="88.000" y="116.000" width="148.000" height="108.000" rx="12.000" fill="none" stroke="#fca5a5" stroke-width="4.000"/>
  <path d="M96.000,148.000 H228.000" stroke="#fca5a5" stroke-width="3.000" stroke-linecap="round"/>
  <rect x="102.000" y="148.000" width="13.000" height="62.000" fill="#fca5a5"/>
  <rect x="122.000" y="148.000" width="13.000" height="62.000" fill="#fca5a5"/>
  <rect x="142.000" y="148.000" width="13.000" height="62.000" fill="#fca5a5"/>
  <rect x="162.000" y="148.000" width="13.000" height="62.000" fill="#fca5a5"/>
  <rect x="182.000" y="148.000" width="13.000" height="62.000" fill="#fca5a5"/>
  <rect x="202.000" y="148.000" width="13.000" height="62.000" fill="#fca5a5"/>
  <rect x="116.000" y="148.000" width="10.000" height="36.000" fill="#1e1b4b"/>
  <rect x="136.000" y="148.000" width="10.000" height="36.000" fill="#1e1b4b"/>
  <rect x="176.000" y="148.000" width="10.000" height="36.000" fill="#1e1b4b"/>
  <rect x="196.000" y="148.000" width="10.000" height="36.000" fill="#1e1b4b"/>

  <path d="M228.000,108.000 V154.000" stroke="#fca5a5" stroke-width="3.500" stroke-linecap="round"/>
  <circle cx="218.000" cy="162.000" r="7.000" fill="none" stroke="#fca5a5" stroke-width="3.000"/>
  <path d="M236.000,126.000 V170.000" stroke="#fca5a5" stroke-width="3.500" stroke-linecap="round"/>
  <circle cx="226.000" cy="178.000" r="7.000" fill="none" stroke="#fca5a5" stroke-width="3.000"/>

  <g fill="#fca5a5">
    <circle cx="76.250" cy="92.500" r="1.700"/>
    <circle cx="93.500" cy="76.750" r="1.500"/>
    <circle cx="231.250" cy="82.750" r="1.850"/>
    <circle cx="248.500" cy="97.500" r="1.500"/>
    <circle cx="79.750" cy="242.250" r="1.650"/>
    <circle cx="95.250" cy="258.250" r="1.450"/>
    <circle cx="228.750" cy="246.000" r="1.750"/>
    <circle cx="244.750" cy="262.500" r="1.500"/>
  </g>
</svg>
