<svg xmlns="http://www.w3.org/2000/svg" width="324" height="324" viewBox="0 0 324 324">
  <defs>
    <radialGradient id="bgGrad401" cx="50%" cy="40%" r="80%">
      <stop offset="0%" stop-color="#225c95"/>
      <stop offset="100%" stop-color="#082a45"/>
    </radialGradient>
    <linearGradient id="barGrad401" x1="0%" y1="0%" x2="0%" y2="100%">
      <stop offset="0%" stop-color="#fff2d1"/>
      <stop offset="100%" stop-color="#f5b547"/>
    </linearGradient>
    <radialGradient id="coinGrad401" cx="40%" cy="35%" r="75%">
      <stop offset="0%" stop-color="#fff1cc"/>
      <stop offset="100%" stop-color="#f59e0b"/>
    </radialGradient>
  </defs>

  <rect x="0.000" y="0.000" width="324.000" height="324.000" fill="url(#bgGrad401)"/>
  <circle cx="162.000" cy="162.000" r="152.000" fill="none" stroke="#f59e0b" stroke-width="3.000"/>

  <!-- 金融 K 線 -->
  <g stroke="#f59e0b" stroke-linecap="round" fill="url(#barGrad401)">
    <path d="M92.000,226.000 L92.000,144.000" stroke-width="2.100"/>
    <rect x="84.500" y="168.000" width="15.000" height="42.000" rx="2.400" stroke-width="1.300"/>

    <path d="M126.000,216.000 L126.000,126.000" stroke-width="2.100"/>
    <rect x="118.500" y="142.000" width="15.000" height="56.000" rx="2.400" stroke-width="1.300"/>

    <path d="M160.000,238.000 L160.000,132.000" stroke-width="2.100"/>
    <rect x="152.500" y="162.000" width="15.000" height="50.000" rx="2.400" stroke-width="1.300"/>

    <path d="M194.000,206.000 L194.000,112.000" stroke-width="2.100"/>
    <rect x="186.500" y="126.000" width="15.000" height="58.000" rx="2.400" stroke-width="1.300"/>
  </g>

  <!-- 趨勢線 -->
  <path d="M82.000,206.000 C104.000,194.000 122.000,184.000 143.000,172.000 C163.000,160.000 186.000,145.000 212.000,121.000" fill="none" stroke="#f59e0b" stroke-width="3.800" stroke-linecap="round"/>
  <path d="M212.000,121.000 L202.000,123.000 L207.000,113.000 Z" fill="#f59e0b"/>

  <!-- 金幣與倍率 -->
  <circle cx="244.000" cy="214.000" r="24.000" fill="url(#coinGrad401)" stroke="#f59e0b" stroke-width="2.000"/>
  <path d="M244.000,201.000 L244.000,227.000" stroke="#fff0cf" stroke-width="2.100" stroke-linecap="round"/>
  <path d="M235.000,207.000 C238.000,204.000 250.000,204.000 253.000,207.000 C255.000,209.000 255.000,212.000 252.000,214.000 C249.000,216.000 239.000,216.000 236.000,218.000 C233.000,220.000 233.000,223.500 236.500,225.000 C240.000,226.500 249.000,226.000 252.000,223.000" stroke="#fff0cf" stroke-width="1.700" fill="none" stroke-linecap="round"/>
  <path d="M226.000,188.000 L262.000,188.000" stroke="#f59e0b" stroke-width="1.800" stroke-linecap="round"/>

  <!-- 點描 -->
  <g fill="#f59e0b">
    <circle cx="74.250" cy="88.500" r="1.700"/>
    <circle cx="90.500" cy="72.750" r="1.500"/>
    <circle cx="235.250" cy="84.250" r="1.850"/>
    <circle cx="251.500" cy="98.000" r="1.500"/>
    <circle cx="80.000" cy="242.000" r="1.650"/>
    <circle cx="94.750" cy="258.250" r="1.450"/>
    <circle cx="229.750" cy="246.500" r="1.750"/>
    <circle cx="245.500" cy="262.750" r="1.500"/>
  </g>
</svg>
