<svg xmlns="http://www.w3.org/2000/svg" width="324" height="324" viewBox="0 0 324 324">
  <defs>
    <radialGradient id="bgGrad402" cx="50%" cy="42%" r="82%">
      <stop offset="0%" stop-color="#934016"/>
      <stop offset="100%" stop-color="#7c2d12"/>
    </radialGradient>
    <radialGradient id="glow402" cx="50%" cy="45%" r="62%">
      <stop offset="0%" stop-color="#dbeafe" stop-opacity="0.38"/>
      <stop offset="100%" stop-color="#dbeafe" stop-opacity="0"/>
    </radialGradient>
  </defs>

  <rect x="0.000" y="0.000" width="324.000" height="324.000" fill="url(#bgGrad402)"/>
  <circle cx="162.000" cy="162.000" r="152.000" fill="none" stroke="#93c5fd" stroke-width="3.000"/>
  <circle cx="162.000" cy="144.000" r="112.000" fill="url(#glow402)"/>

  <path d="M94.000,238.000 C114.000,224.000 136.000,218.000 162.000,218.000 C188.000,218.000 210.000,224.000 230.000,238.000" fill="none" stroke="#93c5fd" stroke-width="2.600" stroke-linecap="round"/>
  <path d="M88.000,254.000 C110.000,238.000 134.000,232.000 162.000,232.000 C190.000,232.000 214.000,238.000 236.000,254.000" fill="none" stroke="#93c5fd" stroke-width="2.100" stroke-linecap="round"/>
  <path d="M84.000,270.000 C108.000,252.000 134.000,246.000 162.000,246.000 C190.000,246.000 216.000,252.000 240.000,270.000" fill="none" stroke="#93c5fd" stroke-width="1.700" stroke-linecap="round"/>

  <circle cx="150.000" cy="116.000" r="9.000" fill="#93c5fd"/>
  <path d="M150.000,126.000 L150.000,170.000" stroke="#93c5fd" stroke-width="3.000" stroke-linecap="round"/>
  <path d="M150.000,140.000 L132.000,154.000" stroke="#93c5fd" stroke-width="2.400" stroke-linecap="round"/>
  <path d="M150.000,140.000 L168.000,152.000" stroke="#93c5fd" stroke-width="2.400" stroke-linecap="round"/>
  <path d="M150.000,170.000 L138.000,194.000" stroke="#93c5fd" stroke-width="2.600" stroke-linecap="round"/>
  <path d="M150.000,170.000 L170.000,190.000" stroke="#93c5fd" stroke-width="2.600" stroke-linecap="round"/>
  <path d="M170.000,190.000 L198.000,182.000" stroke="#93c5fd" stroke-width="4.000" stroke-linecap="round"/>
  <path d="M198.000,182.000 L212.000,176.000" stroke="#ffffff" stroke-width="1.900" stroke-linecap="round" opacity="0.88"/>

  <g fill="#93c5fd">
    <circle cx="76.250" cy="92.500" r="1.700"/>
    <circle cx="93.500" cy="76.750" r="1.500"/>
    <circle cx="231.250" cy="82.750" r="1.850"/>
    <circle cx="248.500" cy="97.500" r="1.500"/>
    <circle cx="79.750" cy="242.250" r="1.650"/>
    <circle cx="95.250" cy="258.250" r="1.450"/>
    <circle cx="228.750" cy="246.000" r="1.750"/>
    <circle cx="244.750" cy="262.500" r="1.500"/>
  </g>
</svg>
